<?xml version="1.0" encoding="UTF-8"?><svg id="a" xmlns="http://www.w3.org/2000/svg" viewBox="0 0 765.08 776.56"><defs><style>.b,.c{fill:#fff;}.c{opacity:0;}</style></defs><path class="b" d="M195.56,559.44h-3.42v13.43h3.42c2.55,0,4.04-1.49,4.04-4.04v-5.35c0-2.55-1.49-4.04-4.04-4.04m101.57,0h-3.42v13.12h3.42c2.55,0,4.04-1.49,4.04-4.04v-5.04c0-2.55-1.49-4.04-4.04-4.04m-166-.62c-2.43,0-3.98,1.55-3.98,4.29v23.76c0,2.74,1.55,4.29,3.98,4.29s3.98-1.55,3.98-4.29v-23.76c0-2.74-1.55-4.29-3.98-4.29m412.61,0c-2.43,0-3.98,1.55-3.98,4.29v23.76c0,2.74,1.55,4.29,3.98,4.29s3.98-1.55,3.98-4.29v-23.76c0-2.74-1.56-4.29-3.98-4.29M337.13,182.93c2.04,1.1,3.99,2.3,5.83,3.6-.39-.35-.93-.82-1.62-1.38-1.08-.73-2.49-1.54-4.22-2.22m14.33,476.55c2.11,0,3.67-1.43,3.67-3.98v-33.96h6.47v33.96c0,6.1-4.11,10.2-10.14,10.2s-10.26-4.1-10.26-10.2v-33.96h6.59v33.96c0,2.55,1.55,3.98,3.67,3.98m57.53-10.14l5.47-27.8h9.45v43.54h-6.59v-29.85l-6.16,29.85h-4.6l-6.16-29.85v29.85h-6.47v-43.54h9.33l5.72,27.8m-31.35,10.14c2.61,0,4.23-1.62,4.23-4.17,0-2.74-1.12-4.73-6.03-9.39-6.53-6.16-8.4-9.52-8.4-14.3,0-6.47,3.73-10.7,10.01-10.7s10.01,4.23,10.01,10.76v1.12l-6.34,.68v-1.24c0-3.36-1.31-5.1-3.61-5.1s-3.61,1.43-3.61,4.17,1.37,4.73,6.03,9.39c6.34,6.34,8.4,9.52,8.4,14.31,0,6.22-4.35,10.7-10.64,10.7s-10.63-4.48-10.63-10.7v-1.56l6.34-.68v1.62c0,3.17,1.62,5.1,4.23,5.1m-214.23-78.46l5.47-27.8h9.45v43.54h-6.59v-29.85l-6.16,29.85h-4.6l-6.16-29.85v29.85h-6.47v-43.54h9.33l5.72,27.8m22.14,15.74v-43.54h10.32c6.28,0,10.32,4.1,10.32,10.39v5.1c0,6.28-4.04,10.39-10.32,10.39h-3.73v17.66h-6.59m36.2-5.6c2.11,0,3.67-1.43,3.67-3.98v-33.96h6.47v33.96c0,6.09-4.1,10.2-10.14,10.2s-10.26-4.11-10.26-10.2v-33.96h6.59v33.96c0,2.55,1.55,3.98,3.67,3.98m14.99-31.72v-6.22h21.02v6.22h-7.21v37.32h-6.59v-37.32h-7.21m26.12,37.32v-43.54h18.72v6.22h-12.13v12.13h9.64v6.22h-9.64v12.75h12.13v6.22h-18.72m24.26,0v-43.54h10.32c6.28,0,10.32,4.1,10.32,10.39v4.79c0,4.04-1.68,7.15-4.54,8.89l5.54,19.47h-6.84l-4.79-17.97h-3.42v17.97h-6.59m90.99,0v-43.54h6.59v43.54h-6.59m13.81,0v-43.54h18.72v6.22h-12.13v12.13h9.64v6.22h-9.64v12.75h12.13v6.22h-18.72m39.93-14.3v-29.23h6.47v43.54h-6.97l-8.71-27.86v27.86h-6.47v-43.54h7.28l8.4,29.23m39.81,14.3v-43.54h18.72v6.22h-12.13v12.13h9.64v6.22h-9.64v12.75h12.13v6.22h-18.72m115.44,0v-43.54h6.59v43.54h-6.59m13.81,0v-43.54h18.72v6.22h-12.13v12.13h9.64v6.22h-9.64v12.75h12.13v6.22h-18.72m22.14-37.32v-6.22h21.02v6.22h-7.21v37.32h-6.59v-37.32h-7.21m35.89,10.39l5.22-16.61h6.9l-8.83,25.31v18.22h-6.59v-18.22l-8.83-25.31h7.03l5.1,16.61m-554.42,27.55c-6.16,0-10.32-4.23-10.32-10.32v-24.13c0-6.09,4.17-10.32,10.32-10.32s10.32,4.23,10.32,10.32v5.1h-6.47v-5.1c0-2.55-1.56-4.1-3.79-4.1s-3.79,1.55-3.79,4.1v24.13c0,2.55,1.56,4.1,3.79,4.1s3.79-1.55,3.79-4.1v-6.22h6.47v6.22c0,6.09-4.17,10.32-10.32,10.32m26.62,0c-6.34,0-10.57-4.23-10.57-10.51v-23.76c0-6.28,4.23-10.51,10.57-10.51s10.57,4.23,10.57,10.51v23.76c0,6.28-4.23,10.51-10.57,10.51m204.56-6.22c2.61,0,4.23-1.62,4.23-4.17,0-2.74-1.12-4.73-6.03-9.39-6.53-6.16-8.4-9.52-8.4-14.3,0-6.47,3.73-10.7,10.01-10.7s10.01,4.23,10.01,10.76v1.12l-6.34,.68v-1.24c0-3.36-1.31-5.1-3.61-5.1s-3.61,1.43-3.61,4.17,1.37,4.73,6.03,9.39c6.34,6.34,8.4,9.52,8.4,14.3,0,6.22-4.35,10.7-10.64,10.7s-10.64-4.48-10.64-10.7v-1.56l6.34-.68v1.62c0,3.17,1.62,5.1,4.23,5.1m26.06,6.22c-6.16,0-10.32-4.23-10.32-10.32v-24.13c0-6.09,4.17-10.32,10.32-10.32s10.32,4.23,10.32,10.32v5.1h-6.47v-5.1c0-2.55-1.56-4.1-3.79-4.1s-3.79,1.55-3.79,4.1v24.13c0,2.55,1.56,4.1,3.79,4.1s3.79-1.55,3.79-4.1v-6.22h6.47v6.22c0,6.09-4.17,10.32-10.32,10.32m93.54,0c-6.16,0-10.32-4.23-10.32-10.32v-24.13c0-6.09,4.17-10.32,10.32-10.32s10.32,4.23,10.32,10.32v5.1h-6.47v-5.1c0-2.55-1.55-4.1-3.79-4.1s-3.79,1.55-3.79,4.1v24.13c0,2.55,1.55,4.1,3.79,4.1s3.79-1.55,3.79-4.1v-6.22h6.47v6.22c0,6.09-4.17,10.32-10.32,10.32m62.13-6.22c2.61,0,4.23-1.62,4.23-4.17,0-2.74-1.12-4.73-6.03-9.39-6.53-6.16-8.4-9.52-8.4-14.3,0-6.47,3.73-10.7,10.01-10.7s10.01,4.23,10.01,10.76v1.12l-6.34,.68v-1.24c0-3.36-1.31-5.1-3.61-5.1s-3.61,1.43-3.61,4.17,1.37,4.73,6.03,9.39c6.34,6.34,8.4,9.52,8.4,14.3,0,6.22-4.35,10.7-10.63,10.7s-10.64-4.48-10.64-10.7v-1.56l6.34-.68v1.62c0,3.17,1.62,5.1,4.23,5.1m26.31,6.22c-6.34,0-10.57-4.23-10.57-10.51v-23.76c0-6.28,4.23-10.51,10.57-10.51s10.57,4.23,10.57,10.51v23.76c0,6.28-4.23,10.51-10.57,10.51m26.99,0c-6.16,0-10.32-4.23-10.32-10.32v-24.13c0-6.09,4.17-10.32,10.32-10.32s10.32,4.23,10.32,10.32v5.1h-6.47v-5.1c0-2.55-1.55-4.1-3.79-4.1s-3.79,1.55-3.79,4.1v24.13c0,2.55,1.55,4.1,3.79,4.1s3.79-1.55,3.79-4.1v-6.22h6.47v6.22c0,6.09-4.17,10.32-10.32,10.32M125.1,398.93c-30.16-17.29-60.32-34.58-90.48-51.87v-37.07c33.72-16.56,67.43-33.12,101.15-49.67,6.34,10.77,12.68,21.53,19.02,32.3-22.47,11.97-44.93,23.94-67.4,35.91,19.29,13.55,38.57,27.11,57.86,40.66-6.72,9.91-13.43,19.83-20.14,29.74m517.97,0c-6.72-9.91-13.43-19.83-20.14-29.74,19.29-13.55,38.57-27.11,57.86-40.66-22.47-11.97-44.93-23.94-67.4-35.91,6.34-10.77,12.68-21.53,19.02-32.3,33.72,16.56,67.43,33.12,101.15,49.67v37.07c-30.16,17.29-60.32,34.58-90.48,51.87m-119.71-129.64l-28.28-13.49h28.28v13.49M237.86,472.11c-2.99-.72-5.86-1.58-8.61-2.57-10.29-3.72-18.84-9.45-25.29-17.15-4.3-5.12-7.66-11.08-10.06-17.77-3.21-8.92-4.74-19.11-4.74-30.53V228.69c0-12.85,1.94-24.15,6.02-33.81,4.07-9.66,10.33-17.64,18.59-23.58,5.5-3.96,11.85-7.03,18.97-9.23,9.5-2.93,20.36-4.34,32.59-4.34,13.76,0,25.79,1.78,36.09,5.51,4.21,1.52,8.13,3.38,11.73,5.57,2.84,1.11,6.02,2.53,9.85,4.45,7.77,3.9,13.38,8.08,16.12,10.14,.87,.65,1.61,1.24,2.22,1.74,1.11,.75,1.86,1.43,2.23,1.82,3.55,2.57,6.72,5.51,9.49,8.82,4.21,5.01,7.49,10.84,9.85,17.41,3.15,8.76,4.67,18.81,4.67,30.13h0v25.93h-55.25v.03l-.06-.03h-.03v-.02l-27.9-13.44h-.53v-27.11c0-.77-.02-1.5-.07-2.19-.43,.12-.84,.26-1.23,.4-2.63,.96-4.54,2.29-5.99,4.01-.97,1.16-1.75,2.52-2.35,4.18-.79,2.2-1.24,4.94-1.24,8.24v175.41c0,.44,0,.88,.02,1.3,.74-.18,1.42-.39,2.06-.62,2.47-.9,4.18-2.11,5.49-3.66,.88-1.04,1.59-2.28,2.14-3.82,.74-2.05,1.17-4.65,1.17-7.84v-27.11h57.7v.06c9.65,4.98,16.28,10.77,25.93,15.76h.14v25.93c0,12.73-1.93,23.87-5.93,33.35-3.99,9.48-10.11,17.27-18.2,23.08-5.38,3.88-11.62,6.89-18.63,9.06-9.36,2.89-20.1,4.29-32.24,4.29-13.66,0-25.55-1.77-35.68-5.44-7.3-2.64-13.69-6.3-19.04-10.96m211.11-131.55c-2.99-.72-5.86-1.58-8.61-2.57-10.29-3.72-18.84-9.45-25.29-17.15-4.3-5.12-7.66-11.08-10.06-17.77-3.21-8.92-4.74-19.11-4.74-30.53v-43.85c0-12.85,1.94-24.15,6.02-33.81,4.07-9.66,10.33-17.64,18.59-23.58,5.5-3.96,11.85-7.03,18.97-9.23,9.5-2.93,20.36-4.34,32.59-4.34,13.76,0,25.79,1.78,36.09,5.51,3.26,1.18,6.34,2.56,9.23,4.14,.82,.33,1.64,.67,2.46,1.03,12.94,5.57,23.55,12.87,29.16,17.65,4.07,2.77,7.68,6.02,10.79,9.73,4.21,5.01,7.49,10.84,9.85,17.41,3.15,8.76,4.67,18.81,4.67,30.13v25.93h-55.34v-13.46h-28.43v-27.11c0-.77-.02-1.5-.07-2.19-.43,.12-.84,.26-1.23,.4-2.63,.96-4.54,2.29-5.99,4.01-.97,1.16-1.75,2.52-2.35,4.18-.79,2.2-1.24,4.94-1.24,8.24v43.85c0,.8,.03,1.57,.08,2.3,10.61,.56,20.08,2.3,28.42,5.32,9.03,3.26,16.72,8.08,22.83,14.41,1.37,.41,2.71,.85,4.02,1.33,10.12,3.66,18.48,9.28,24.79,16.8,4.21,5.01,7.49,10.84,9.85,17.41,3.15,8.76,4.67,18.81,4.67,30.13v43.85c0,12.73-1.93,23.87-5.93,33.35-3.99,9.48-10.11,17.27-18.2,23.08-5.38,3.88-11.62,6.89-18.63,9.06-9.36,2.89-20.1,4.29-32.24,4.29-13.66,0-25.55-1.77-35.68-5.44-7.3-2.64-13.69-6.3-19.04-10.96-2.99-.72-5.86-1.58-8.61-2.57-10.29-3.72-18.84-9.45-25.29-17.15-4.3-5.12-7.66-11.08-10.06-17.77-3.21-8.92-4.74-19.11-4.74-30.53h0v-27.11h57.7v.24c9.02,4.72,16.89,10.87,25.92,15.57h.16v25.93c0,.44,0,.88,.02,1.3,.74-.18,1.42-.39,2.06-.62,2.47-.9,4.18-2.11,5.49-3.66,.87-1.04,1.59-2.28,2.14-3.82,.74-2.05,1.17-4.65,1.17-7.84v-43.85c0-1.28-.07-2.47-.2-3.56-9.96-.62-18.87-2.33-26.71-5.17-7.3-2.64-13.69-6.3-19.04-10.96M382.54,0C171.27,0,0,173.84,0,388.28s171.27,388.28,382.54,388.28,382.54-173.84,382.54-388.28S593.81,0,382.54,0"/><path class="c" d="M359.58,400.81h-18.06v3.29c0,12.85-1.95,24.15-6.02,33.81-4.07,9.66-10.33,17.64-18.59,23.58-5.5,3.96-11.85,7.03-18.97,9.23-9.5,2.93-20.36,4.34-32.59,4.34-2.55,0-5.03-.06-7.46-.19,1.55,.61,3.16,1.18,4.83,1.7,8.39,2.59,18.34,3.93,29.86,3.93h.04c12.96,0,23.93-1.7,32.93-4.96,9.01-3.27,16.04-8.07,21.38-14.42,3.56-4.24,6.37-9.2,8.45-14.97,2.77-7.69,4.2-16.82,4.2-27.42v-17.92m-94.27-188.86c-3.98,0-7.19,.53-9.65,1.42-2.47,.9-4.18,2.11-5.49,3.66-.87,1.04-1.59,2.28-2.14,3.82-.74,2.05-1.17,4.65-1.17,7.84v175.41c0,3.59,.55,6.43,1.46,8.58,.93,2.16,2.15,3.68,3.87,4.94,1.16,.83,2.57,1.54,4.32,2.08,2.25,.7,5.07,1.11,8.46,1.14-.03-.69-.05-1.39-.05-2.11V243.32c0-4.51,.68-8.58,2.19-12.16,1.5-3.57,3.87-6.61,6.96-8.82,2.06-1.48,4.41-2.61,6.98-3.4,.21-.07,.42-.13,.64-.19-.83-1.47-1.86-2.61-3.21-3.59-1.16-.83-2.57-1.54-4.32-2.08-2.33-.72-5.27-1.14-8.8-1.14h-.05m67.79-22.09c1.4,2.62,2.63,5.39,3.67,8.3,3.21,8.92,4.74,19.11,4.74,30.53v27.11h-21.26v5.45h39.32v-17.92h0c0-11.93-1.82-21.99-5.3-30.24-3.49-8.25-8.61-14.72-15.5-19.7-1.77-1.28-3.66-2.45-5.68-3.53"/><path class="c" d="M367.59,392.8h-.14l.09,.05c-10.65,.39-15.34,1.93-25.99,2.32l-.03-.1v1.74h22.07v21.93c0,43.85-23.67,65.78-71,65.78-19.07,0-34.29-3.56-45.68-10.68-3.13-.45-6.15-1.02-9.05-1.72,5.36,4.66,11.74,8.31,19.04,10.96,10.13,3.67,22.03,5.44,35.68,5.44,12.14,0,22.89-1.4,32.24-4.29,7.01-2.17,13.25-5.18,18.63-9.06,8.08-5.81,14.2-13.6,18.2-23.08,4-9.48,5.93-20.62,5.93-33.35v-25.93m-55.34-123.56v.02h.03l-.03-.02m-29.1-46.73c-9.48,2.55-14.22,9.49-14.22,20.82v175.41c0,.66,.02,1.31,.05,1.95,1.46-.14,2.79-.36,3.98-.65-.02-.42-.02-.86-.02-1.3V243.32c0-3.3,.45-6.03,1.24-8.24,.6-1.66,1.38-3.02,2.35-4.18,1.46-1.73,3.36-3.05,5.99-4.01,.39-.14,.81-.28,1.23-.4-.1-1.48-.31-2.81-.6-3.99m44.78-41.36c-.2,0-.39,0-.58,.01,.65,.81,1.29,1.64,1.89,2.49,22.9,9.29,34.35,29.18,34.35,59.68h0v21.93h-47.33v-9.45h-3.91v13.46h55.25v-25.93c0-11.32-1.52-21.37-4.67-30.13-2.36-6.57-5.65-12.4-9.85-17.41-2.78-3.31-5.95-6.25-9.49-8.82,.2,.21,.29,.34,.26,.35h0s-.3-.27-.87-.79c-1.85-1.3-3.79-2.5-5.83-3.6-.29-.12-.6-.23-.91-.33-2.8-.96-6.03-1.45-8.3-1.45"/><path class="c" d="M363.58,396.8h-22.07v4.01h18.06v17.92c0,10.6-1.43,19.74-4.2,27.42-2.08,5.77-4.89,10.73-8.45,14.97-5.34,6.35-12.37,11.14-21.38,14.42-9,3.27-19.98,4.96-32.93,4.96h-.04c-11.52,0-21.47-1.34-29.86-3.93-1.67-.52-3.28-1.08-4.83-1.7-3.8-.19-7.46-.54-10.97-1.04,11.39,7.12,26.61,10.68,45.68,10.68,47.33,0,71-21.93,71-65.78v-21.93m0-153.48h-4.01v17.92h-39.32v-5.45h-4.01v9.45h47.33v-21.93h0m-81.9-24.57c-.21,.06-.43,.12-.64,.19-2.58,.8-4.93,1.92-6.98,3.4-3.09,2.22-5.47,5.25-6.96,8.82-1.51,3.57-2.19,7.64-2.19,12.16v175.41c0,.71,.02,1.42,.05,2.11,.12,0,.23,0,.35,0h.05c1.28,0,2.48-.06,3.61-.16-.03-.63-.05-1.28-.05-1.95V243.32c0-11.33,4.74-18.27,14.22-20.82-.22-.88-.48-1.68-.79-2.4-.21-.48-.43-.93-.67-1.36m47.55-35.11c1.41,1.97,2.7,4.04,3.86,6.21,2.02,1.08,3.91,2.25,5.68,3.53,6.89,4.98,12.01,11.45,15.5,19.7,3.48,8.25,5.3,18.31,5.3,30.24h4.01c0-30.5-11.45-50.39-34.35-59.68"/><path class="c" d="M476.03,400.81h-18.06v3.29c0,3.59,.55,6.43,1.46,8.58,.93,2.16,2.15,3.68,3.87,4.94,1.16,.83,2.57,1.54,4.32,2.08,2.25,.7,5.07,1.11,8.46,1.14-.03-.69-.05-1.39-.05-2.11v-17.92m-7.04-57.49c1.55,.61,3.16,1.18,4.83,1.7,5.26,1.63,11.13,2.76,17.62,3.38-.54-.62-1.16-1.16-1.85-1.67-1.16-.83-2.57-1.54-4.32-2.08-2.33-.72-5.27-1.14-8.8-1.14h-.02c-2.55,0-5.03-.06-7.46-.19m75.22-21.9c1.4,2.62,2.63,5.39,3.67,8.3,3.21,8.92,4.74,19.11,4.74,30.53v43.85c0,12.85-1.94,24.15-6.02,33.81-4.07,9.66-10.33,17.64-18.59,23.58-5.5,3.96-11.85,7.03-18.97,9.23-9.5,2.93-20.36,4.34-32.59,4.34-2.55,0-5.03-.06-7.46-.19,1.55,.61,3.16,1.18,4.83,1.7,8.39,2.59,18.34,3.93,29.86,3.93h.04c12.96,0,23.93-1.7,32.93-4.96,9.01-3.27,16.04-8.07,21.39-14.42,3.56-4.24,6.37-9.2,8.45-14.97,2.77-7.69,4.2-16.82,4.2-27.42v-43.85c0-11.93-1.82-21.99-5.3-30.24-3.49-8.25-8.61-14.72-15.5-19.7-1.77-1.28-3.66-2.45-5.68-3.53m-67.79-109.47c-3.98,0-7.19,.53-9.65,1.42-2.47,.9-4.18,2.11-5.49,3.66-.87,1.04-1.59,2.28-2.14,3.82-.74,2.05-1.17,4.65-1.17,7.84v43.85c0,3.59,.55,6.43,1.46,8.58,.93,2.16,2.15,3.68,3.87,4.94,1.16,.83,2.57,1.54,4.32,2.08,2.25,.7,5.07,1.11,8.46,1.14-.03-.69-.05-1.39-.05-2.11v-43.85c0-4.51,.68-8.58,2.19-12.16,1.5-3.57,3.87-6.61,6.96-8.82,2.06-1.48,4.41-2.61,6.98-3.4,.21-.07,.42-.13,.64-.19-.83-1.47-1.87-2.61-3.21-3.59-1.16-.83-2.57-1.54-4.32-2.08-2.33-.72-5.27-1.14-8.8-1.14h-.05m67.79-22.09c1.4,2.62,2.63,5.39,3.67,8.3,3.21,8.92,4.74,19.11,4.74,30.53v27.11h-21.26v5.45h39.32v-17.92c0-11.93-1.82-21.99-5.3-30.24-3.49-8.25-8.61-14.72-15.5-19.7-1.77-1.28-3.66-2.45-5.68-3.53"/><path class="c" d="M484.04,392.8h-.16l.11,.06c-9.08,.74-16.98,.17-26.03,.88v3.07h22.07v21.93c0,.66,.02,1.31,.05,1.95,1.46-.14,2.79-.36,3.98-.65-.02-.42-.02-.86-.02-1.3v-25.93m-35.07-52.24c5.36,4.66,11.74,8.31,19.04,10.96,7.85,2.84,16.75,4.55,26.71,5.17-.19-1.54-.49-2.89-.9-4.07-14.53-1.05-26.46-4.49-35.81-10.33-3.13-.45-6.15-1.02-9.05-1.72m86.39-31.35c.85,.88,1.67,1.8,2.46,2.74,.88,1.05,1.72,2.13,2.52,3.25,22.9,9.29,34.35,29.18,34.35,59.68v43.85c0,43.85-23.67,65.78-71,65.78-19.07,0-34.29-3.56-45.68-10.68-3.13-.45-6.15-1.02-9.05-1.72,5.36,4.66,11.74,8.31,19.04,10.96,10.13,3.67,22.03,5.44,35.68,5.44,12.14,0,22.89-1.4,32.24-4.29,7.01-2.17,13.25-5.18,18.63-9.06,8.08-5.81,14.2-13.6,18.2-23.08,4-9.48,5.93-20.62,5.93-33.35v-43.85c0-11.32-1.52-21.37-4.67-30.13-2.36-6.57-5.65-12.4-9.85-17.41-6.31-7.52-14.67-13.14-24.79-16.8-1.31-.47-2.65-.92-4.02-1.33m-41.11-86.7c-9.48,2.55-14.22,9.49-14.22,20.82v43.85c0,.74,.02,1.45,.06,2.15,1.36,.03,2.7,.08,4.02,.15-.05-.74-.08-1.5-.08-2.3v-43.85c0-3.3,.45-6.03,1.24-8.24,.6-1.66,1.38-3.02,2.35-4.18,1.46-1.73,3.36-3.05,5.99-4.01,.39-.14,.81-.28,1.23-.4-.1-1.48-.31-2.81-.6-3.99m59.13-36.45c3.01,2.57,4.58,4.42,4.29,4.89-.06,.09-.19,.14-.39,.14-1.15,0-4.47-1.42-7.82-2.84l-.14-.06c16.92,10.54,25.38,28.92,25.38,55.14v21.93h-47.33v-9.45h-4.01v13.46h55.34v-25.93c0-11.32-1.52-21.37-4.67-30.13-2.36-6.57-5.65-12.4-9.85-17.41-3.11-3.71-6.72-6.95-10.79-9.73"/><path class="c" d="M480.04,396.8h-22.07v4.01h18.06v17.92c0,.71,.02,1.42,.05,2.11,.12,0,.23,0,.35,0h.05c1.28,0,2.48-.06,3.61-.16-.03-.63-.05-1.28-.05-1.95v-21.93m-22.02-54.53c9.35,5.84,21.29,9.29,35.81,10.33-.11-.33-.23-.64-.36-.95-.55-1.29-1.21-2.36-2.02-3.27-6.49-.62-12.36-1.75-17.62-3.38-1.67-.52-3.28-1.08-4.83-1.7-3.8-.19-7.46-.54-10.97-1.04m82.33-27.08c1.41,1.97,2.7,4.04,3.86,6.21,2.02,1.08,3.91,2.25,5.68,3.53,6.89,4.98,12.01,11.45,15.5,19.7,3.48,8.25,5.3,18.31,5.3,30.24v43.85c0,10.6-1.43,19.74-4.2,27.42-2.08,5.77-4.89,10.73-8.45,14.97-5.34,6.35-12.37,11.14-21.39,14.42-9,3.27-19.98,4.96-32.93,4.96h-.04c-11.52,0-21.47-1.34-29.86-3.93-1.67-.52-3.28-1.08-4.83-1.7-3.8-.19-7.46-.54-10.97-1.04,11.39,7.12,26.61,10.68,45.68,10.68,47.33,0,71-21.93,71-65.78v-43.85c0-30.5-11.45-50.39-34.35-59.68m-47.55-96.44c-.21,.06-.43,.12-.64,.19-2.58,.8-4.93,1.92-6.98,3.4-3.09,2.22-5.47,5.25-6.96,8.82-1.51,3.57-2.19,7.64-2.19,12.16v43.85c0,.71,.02,1.42,.05,2.11,.12,0,.23,0,.35,0h.02c1.23,0,2.44,.01,3.65,.04-.04-.7-.06-1.42-.06-2.15v-43.85c0-11.33,4.74-18.27,14.22-20.82-.22-.88-.48-1.68-.79-2.4-.21-.48-.43-.93-.67-1.36m48.76-33.34c.94,1.43,1.83,2.92,2.65,4.45,2.02,1.08,3.91,2.25,5.68,3.53,6.89,4.98,12.01,11.45,15.5,19.7,3.48,8.25,5.3,18.31,5.3,30.24v17.92h-39.32v-5.45h-4.01v9.45h47.33v-21.93c0-26.22-8.46-44.6-25.38-55.14-3.18-1.35-6.37-2.67-7.75-2.77"/><path class="c" d="M313.16,168.82c4.12,2.51,7.84,5.46,11.1,8.84,1.37,.41,2.71,.85,4.02,1.33,3.12,1.13,6.07,2.44,8.85,3.94,1.72,.68,3.14,1.48,4.22,2.22-.61-.5-1.35-1.09-2.22-1.74-2.73-2.06-8.35-6.23-16.12-10.14-3.82-1.92-7.01-3.34-9.85-4.45"/><path class="c" d="M324.25,177.65c.85,.88,1.67,1.8,2.46,2.74,.21,.25,.42,.51,.63,.76,.18,0,.38-.01,.58-.01,2.26,0,5.49,.48,8.3,1.45,.31,.11,.61,.22,.91,.33-2.78-1.5-5.73-2.81-8.85-3.94-1.31-.47-2.65-.92-4.02-1.33"/><path class="c" d="M341.34,185.14c.69,.57,1.22,1.03,1.62,1.38,.21,.14,.41,.29,.61,.44-.37-.39-1.12-1.07-2.23-1.82"/><path class="c" d="M342.96,186.53c.57,.51,.85,.79,.87,.79h0s-.06-.14-.26-.35c-.2-.15-.41-.29-.61-.44"/><path class="c" d="M312.34,269.26h-.06l.06,.03v-.03m-.1-13.46h-27.9l27.9,13.44v-13.44"/><polyline class="c" points="312.34 255.8 312.25 255.8 312.25 269.24 312.28 269.26 312.34 269.26 312.34 255.8"/><path class="c" d="M341.52,377.04v15.76h25.93c-9.65-4.98-16.28-10.77-25.93-15.76"/><path class="c" d="M367.45,392.8h-25.93v2.27l.03,.1c10.65-.39,15.34-1.93,25.99-2.32l-.09-.05"/><path class="b" d="M265.31,168.1c-12.85,0-23.69,1.69-32.53,4.89-8.85,3.22-15.69,7.89-20.88,14.07-3.46,4.13-6.21,8.96-8.24,14.61-2.71,7.53-4.13,16.52-4.13,27.02v175.41c0,11.81,1.8,21.72,5.21,29.78,3.42,8.07,8.39,14.35,15.1,19.2,4.48,3.23,9.78,5.82,15.97,7.73,8.25,2.55,18.08,3.88,29.51,3.88h.05c12.85,0,23.69-1.69,32.53-4.89,8.85-3.22,15.69-7.89,20.88-14.07,3.46-4.13,6.21-8.96,8.24-14.61,2.71-7.53,4.13-16.52,4.13-27.02v-16.74h-36.96v16.74c0,4.63-.7,8.86-2.28,12.62-1.57,3.75-4.09,6.98-7.36,9.32-2.17,1.57-4.64,2.75-7.32,3.57-3.58,1.1-7.54,1.6-11.88,1.6-4.88,0-9.29-.63-13.21-2.04-3.91-1.41-7.33-3.67-9.9-6.74-1.71-2.04-3.03-4.4-3.96-6.97-1.23-3.44-1.78-7.23-1.78-11.35V228.69c0-4.63,.7-8.86,2.28-12.61,1.57-3.75,4.09-6.98,7.36-9.32,2.17-1.57,4.64-2.75,7.32-3.57,3.58-1.1,7.54-1.6,11.88-1.6,4.88,0,9.29,.63,13.21,2.05,3.91,1.41,7.33,3.67,9.9,6.74,1.71,2.04,3.03,4.4,3.96,6.97,1.23,3.44,1.78,7.23,1.79,11.35v16.74h36.96v-16.74c0-11.81-1.8-21.72-5.21-29.78-3.42-8.07-8.39-14.35-15.1-19.2-4.48-3.23-9.78-5.82-15.97-7.73-8.25-2.55-18.08-3.88-29.51-3.88h-.05"/><path class="c" d="M341.52,376.99h-57.7v27.11c0,3.19-.44,5.79-1.17,7.84-.56,1.54-1.27,2.77-2.14,3.82-1.32,1.56-3.02,2.76-5.49,3.66-.63,.23-1.32,.44-2.06,.62,.07,1.93,.31,3.65,.68,5.16,10.24-2.29,15.37-9.32,15.37-21.1v-21.93h47.33v10.63h4.72c-.78-4.99-.41-11.17,.38-15.8l.08,.04v-.06m-52.64-151.42c-1.91,.18-3.62,.49-5.13,.93,.05,.7,.07,1.43,.07,2.19v27.11h.53l-.51-.25h28.42v-4.94h-23.25v-21.93c0-1.08-.04-2.12-.13-3.12m-23.54-67.84c-12.23,0-23.09,1.41-32.59,4.34-7.12,2.2-13.47,5.26-18.97,9.23-8.26,5.94-14.53,13.92-18.59,23.58-4.08,9.67-6.02,20.96-6.02,33.81v175.41c0,11.43,1.54,21.61,4.74,30.53,2.4,6.68,5.76,12.64,10.06,17.77,6.45,7.69,15,13.43,25.29,17.15,2.75,.99,5.62,1.85,8.61,2.57-2.07-1.8-3.99-3.75-5.75-5.84-.47-.56-.92-1.12-1.37-1.7-24.27-8.92-36.41-29.07-36.41-60.47V228.69c0-43.85,23.67-65.78,71-65.78,7.98,0,15.29,.62,21.92,1.87,2.07-1.21,3.79-1.64,4.8-1.82,.44-.08,.9-.12,1.38-.12,3.36,0,7.79,1.91,15.82,4.57,1.24,.41,2.53,.87,3.9,1.41-3.6-2.19-7.52-4.05-11.73-5.57-10.3-3.73-22.33-5.51-36.09-5.51"/><path class="c" d="M341.52,400.81h-5.18v3.29c0,43.85-23.67,65.78-71,65.78-6.91,0-13.31-.47-19.21-1.4,.09,.06,.18,.13,.27,.19,3.38,2.43,7.2,4.5,11.48,6.2,2.43,.12,4.92,.18,7.46,.19,12.23,0,23.09-1.41,32.59-4.34,7.12-2.2,13.47-5.26,18.97-9.23,8.26-5.94,14.53-13.92,18.59-23.58,4.08-9.67,6.02-20.96,6.02-33.81v-3.29m-76.18-194.04c-15.78,0-23.67,7.31-23.67,21.93v175.41c0,14.62,7.89,21.93,23.67,21.93,.09,0,.18,0,.27,0-.34-1.65-.55-3.38-.64-5.18-3.38-.03-6.2-.44-8.46-1.14-1.76-.54-3.17-1.25-4.32-2.08-1.73-1.26-2.95-2.78-3.87-4.94-.91-2.15-1.46-4.99-1.46-8.58V228.69c0-3.19,.43-5.79,1.17-7.84,.56-1.54,1.27-2.77,2.14-3.82,1.32-1.56,3.02-2.76,5.49-3.66,2.45-.89,5.67-1.42,9.65-1.42h.05c3.54,0,6.47,.42,8.8,1.14,1.75,.54,3.17,1.25,4.32,2.08,1.34,.98,2.38,2.12,3.21,3.59,1.67-.47,3.42-.82,5.28-1.04-3.27-7.3-10.48-10.95-21.63-10.95m59.36-20.55c7.76,10.57,11.63,24.72,11.63,42.47v21.93h-16.07v5.18h21.26v-27.11c0-11.43-1.54-21.61-4.74-30.53-1.04-2.91-2.27-5.68-3.67-8.3-2.59-1.38-5.39-2.6-8.4-3.64"/><path class="c" d="M230.75,464.57c.44,.58,.9,1.14,1.37,1.7,1.76,2.1,3.68,4.05,5.75,5.84,2.9,.7,5.92,1.27,9.05,1.72-3.27-2.04-6.22-4.38-8.86-7.01-2.55-.65-4.98-1.4-7.31-2.25m42.21-44.54c-1.19,.29-2.52,.51-3.98,.65,.09,1.84,.33,3.55,.7,5.14,1.4-.14,2.72-.35,3.97-.62-.38-1.52-.61-3.23-.68-5.16m68.1-27.23h-4.72v4.01h5.18v-1.74c-.19-.72-.34-1.48-.46-2.27m-24.8-142.18h-4.01v4.94h.1v.25h3.91v-5.18m-28-29.01c-1.83,.18-3.54,.48-5.11,.91,.29,1.18,.5,2.51,.6,3.99,1.5-.44,3.21-.75,5.13-.93-.12-1.4-.33-2.72-.62-3.97m39.09-40.44c-1.15,.05-1.97,.24-2.22,.59-.08,.11-.08,.24-.03,.38,1.42,.47,2.8,.98,4.14,1.52-.61-.85-1.24-1.68-1.89-2.49"/><path class="c" d="M238.05,466.82c2.63,2.63,5.59,4.97,8.86,7.01,3.51,.5,7.17,.85,10.97,1.04-4.28-1.7-8.1-3.77-11.48-6.2-.09-.06-.18-.13-.27-.19-2.81-.44-5.5-.99-8.08-1.65m30.92-46.14c-1.12,.1-2.33,.16-3.61,.16h-.05c-.12,0-.23,0-.35,0,.09,1.81,.3,3.54,.64,5.18,1.42,0,2.77-.07,4.06-.2-.37-1.59-.6-3.3-.7-5.14m72.55-23.87h-5.18v4.01h5.18v-4.01m-21.26-146.19h-4.01v5.18h4.01v-5.18m-33.29-32.9c-1.85,.22-3.61,.57-5.28,1.04,.24,.42,.46,.87,.67,1.36,.31,.72,.57,1.52,.79,2.4,1.57-.42,3.28-.72,5.11-.91-.32-1.39-.76-2.69-1.29-3.89m33.97-36.02c1.34,1.43,2.6,2.94,3.76,4.52,3.01,1.04,5.81,2.26,8.4,3.64-1.16-2.17-2.45-4.25-3.86-6.21-1.34-.54-2.72-1.05-4.14-1.52,.07,.19,.24,.41,.45,.62-1.54-.35-3.07-.7-4.61-1.05"/><path class="c" d="M293.44,162.84c-.48,0-.94,.04-1.38,.12-1,.18-2.72,.61-4.8,1.82,10.34,1.94,19.04,5.4,26.11,10.36,3.81,.64,7.44,1.48,10.89,2.51-3.26-3.38-6.97-6.33-11.1-8.84-1.37-.54-2.66-1-3.9-1.41-8.03-2.66-12.46-4.57-15.82-4.57"/><path class="c" d="M313.37,175.15c2.35,1.65,4.52,3.47,6.51,5.45,1.8,.46,3.53,.96,5.22,1.52-.05-.14-.05-.27,.03-.38,.25-.35,1.07-.54,2.22-.59-.21-.26-.42-.51-.63-.76-.79-.94-1.61-1.85-2.46-2.74-3.44-1.03-7.07-1.87-10.89-2.51"/><path class="c" d="M319.87,180.6c.36,.36,.71,.72,1.06,1.1,1.54,.35,3.07,.7,4.61,1.05-.21-.21-.38-.43-.45-.62-1.69-.56-3.42-1.07-5.22-1.52"/><polyline class="c" points="312.25 255.55 283.83 255.55 284.35 255.8 312.25 255.8 312.25 255.55"/><polyline class="c" points="312.34 255.55 312.25 255.55 312.25 255.8 312.34 255.8 312.34 255.55"/><path class="c" d="M341.44,377c-.79,4.63-1.17,10.81-.38,15.8h.46v-15.76l-.08-.04"/><path class="c" d="M341.52,392.8h-.46c.12,.79,.28,1.55,.46,2.27v-2.27"/><path class="c" d="M265.32,464.69c-11.43,0-21.26-1.33-29.51-3.88-6.19-1.91-11.49-4.5-15.97-7.73-6.72-4.86-11.68-11.13-15.1-19.2-3.41-8.06-5.21-17.97-5.21-29.78V228.69c0-10.5,1.42-19.5,4.13-27.02,2.03-5.65,4.78-10.48,8.24-14.61,5.2-6.18,12.04-10.85,20.88-14.07,8.83-3.21,19.67-4.89,32.53-4.89h.05c11.43,0,21.26,1.33,29.51,3.88,6.19,1.91,11.49,4.5,15.97,7.73,6.72,4.86,11.68,11.13,15.1,19.2,3.41,8.06,5.21,17.96,5.21,29.78v16.74h-36.96v-16.74c0-4.12-.55-7.91-1.79-11.35-.92-2.57-2.24-4.93-3.96-6.97-2.57-3.07-5.99-5.34-9.9-6.74-3.92-1.42-8.32-2.04-13.21-2.05-4.34,0-8.3,.5-11.88,1.6-2.68,.83-5.15,2.01-7.32,3.57-3.27,2.34-5.79,5.57-7.36,9.32-1.58,3.76-2.28,7.99-2.28,12.61v175.41c0,4.12,.55,7.91,1.78,11.35,.92,2.57,2.24,4.94,3.96,6.97,2.57,3.07,5.99,5.34,9.9,6.74,3.92,1.42,8.32,2.04,13.21,2.04,4.34,0,8.3-.5,11.88-1.6,2.68-.83,5.15-2.01,7.32-3.57,3.27-2.34,5.79-5.57,7.36-9.32,1.58-3.76,2.28-7.99,2.28-12.62v-16.74h36.96v16.74c0,10.5-1.42,19.5-4.13,27.02-2.03,5.65-4.78,10.48-8.24,14.61-5.2,6.18-12.04,10.85-20.88,14.07-8.83,3.21-19.67,4.89-32.53,4.89h-.05m.02-301.78c-47.33,0-71,21.93-71,65.78v175.41c0,31.4,12.14,51.56,36.41,60.47,2.33,.85,4.76,1.6,7.31,2.25,2.58,.66,5.27,1.21,8.08,1.65,5.9,.93,12.3,1.4,19.21,1.4,47.33,0,71-21.93,71-65.78v-21.93h-47.33v21.93c0,11.78-5.12,18.81-15.37,21.1-1.25,.28-2.57,.49-3.97,.62-1.29,.13-2.64,.19-4.06,.2-.09,0-.18,0-.27,0-15.78,0-23.67-7.31-23.67-21.93V228.69c0-14.61,7.89-21.93,23.67-21.93,11.15,0,18.36,3.65,21.63,10.95,.54,1.2,.97,2.49,1.29,3.89,.29,1.24,.49,2.56,.62,3.97,.09,1,.13,2.04,.13,3.12v21.93h47.33v-21.93c0-17.75-3.88-31.91-11.63-42.47-1.17-1.59-2.42-3.1-3.76-4.52-.35-.37-.7-.74-1.06-1.1-1.99-1.98-4.16-3.8-6.51-5.45-7.07-4.97-15.77-8.42-26.11-10.36-6.63-1.25-13.94-1.87-21.92-1.87"/><polyline class="c" points="523.35 255.81 495.08 255.81 523.35 269.29 523.35 255.81"/><path class="c" d="M521.77,167.38c5.14,2.8,9.69,6.23,13.59,10.28,1.37,.41,2.71,.85,4.02,1.33,5.14,1.86,9.82,4.22,14.01,7.07-5.61-4.79-16.22-12.08-29.16-17.65-.82-.35-1.64-.7-2.46-1.03"/><path class="c" d="M535.36,177.65c.85,.88,1.67,1.8,2.46,2.74,.88,1.05,1.72,2.13,2.52,3.25,3.21,1.3,6.2,2.82,8.97,4.54l.14,.06c3.35,1.42,6.67,2.84,7.82,2.84,.2,0,.34-.04,.39-.14,.29-.47-1.28-2.32-4.29-4.89-4.19-2.86-8.87-5.22-14.01-7.07-1.31-.47-2.65-.92-4.02-1.33"/><path class="c" d="M540.35,183.64c.42,.58,.82,1.17,1.21,1.77,1.38,.1,4.57,1.43,7.75,2.77-2.76-1.72-5.75-3.23-8.97-4.54"/><path class="c" d="M457.97,377.23v15.57h25.92c-9.03-4.71-16.9-10.85-25.92-15.57"/><path class="c" d="M483.88,392.8h-25.92v.94c9.05-.71,16.95-.14,26.03-.88l-.11-.06"/><path class="b" d="M476.42,168.1c-12.85,0-23.69,1.69-32.53,4.89-8.85,3.22-15.69,7.89-20.88,14.07-3.46,4.13-6.21,8.96-8.24,14.61-2.71,7.53-4.13,16.52-4.13,27.02v43.85c0,11.81,1.8,21.72,5.21,29.78,3.42,8.07,8.39,14.35,15.1,19.2,4.48,3.23,9.78,5.82,15.97,7.73,8.25,2.55,18.09,3.88,29.51,3.88h.02c4.88,0,9.29,.63,13.21,2.05,3.91,1.41,7.33,3.67,9.9,6.74,1.71,2.04,3.03,4.4,3.96,6.97,1.23,3.44,1.78,7.23,1.79,11.35v43.85c0,4.63-.7,8.86-2.28,12.62-1.57,3.75-4.09,6.98-7.36,9.32-2.17,1.57-4.64,2.75-7.32,3.57-3.58,1.1-7.54,1.6-11.88,1.6-4.88,0-9.29-.63-13.21-2.04-3.91-1.41-7.33-3.67-9.9-6.74-1.71-2.04-3.03-4.4-3.96-6.97-1.23-3.44-1.78-7.23-1.78-11.35v-16.74h-36.96v16.74h0c0,11.81,1.8,21.72,5.21,29.78,3.42,8.07,8.39,14.35,15.1,19.2,4.48,3.23,9.78,5.82,15.97,7.73,8.25,2.55,18.08,3.88,29.51,3.88h.05c12.85,0,23.69-1.69,32.53-4.89,8.85-3.22,15.69-7.89,20.88-14.07,3.46-4.13,6.21-8.96,8.24-14.61,2.71-7.53,4.13-16.52,4.13-27.02v-43.85c0-11.81-1.8-21.72-5.21-29.78-3.42-8.07-8.39-14.35-15.1-19.2-4.48-3.23-9.78-5.82-15.97-7.73-8.25-2.55-18.08-3.88-29.51-3.88h-.02c-4.88,0-9.29-.63-13.21-2.04-3.91-1.41-7.33-3.67-9.9-6.74-1.71-2.04-3.03-4.4-3.96-6.97-1.23-3.44-1.78-7.23-1.78-11.35v-43.85c0-4.63,.7-8.86,2.28-12.61,1.57-3.75,4.09-6.98,7.36-9.32,2.17-1.57,4.64-2.75,7.32-3.57,3.58-1.1,7.54-1.6,11.88-1.6,4.88,0,9.29,.63,13.21,2.05,3.91,1.41,7.33,3.67,9.9,6.74,1.71,2.04,3.03,4.4,3.96,6.97,1.23,3.44,1.78,7.23,1.79,11.35v16.74h36.96v-16.74c0-11.81-1.8-21.72-5.21-29.78-3.42-8.07-8.39-14.35-15.1-19.2-4.48-3.23-9.78-5.82-15.97-7.73-8.25-2.55-18.08-3.88-29.51-3.88h-.05"/><path class="c" d="M457.97,376.99h-57.7v27.11h5.18v-21.93h47.33v10.63h4.89c.03-5.19,.04-10.51,.07-15.69,.07,.04,.15,.08,.22,.12v-.24m36.76-20.3c.13,1.09,.2,2.28,.2,3.56v43.85c0,3.19-.44,5.79-1.17,7.84-.56,1.54-1.27,2.77-2.14,3.82-1.32,1.56-3.02,2.76-5.49,3.66-.63,.23-1.32,.44-2.06,.62,.07,1.93,.31,3.65,.68,5.16,10.24-2.29,15.37-9.32,15.37-21.1v-43.85c0-1.16-.05-2.27-.15-3.33-1.78-.04-3.52-.12-5.24-.23m-18.28-198.96c-12.23,0-23.09,1.41-32.59,4.34-7.12,2.2-13.47,5.26-18.97,9.23-8.26,5.94-14.53,13.92-18.59,23.58-4.08,9.67-6.02,20.96-6.02,33.81v43.85c0,11.43,1.54,21.61,4.74,30.53,2.4,6.68,5.76,12.64,10.06,17.77,6.45,7.69,15,13.43,25.29,17.15,2.75,.99,5.62,1.85,8.61,2.57-2.07-1.8-3.99-3.75-5.75-5.84-.47-.56-.92-1.12-1.37-1.7-24.27-8.92-36.4-29.07-36.4-60.47v-43.85c0-43.85,23.67-65.78,71-65.78,5.86,0,11.36,.34,16.49,1.01-.31-.15-.62-.29-.94-.44,.65,.2,1.28,.39,1.89,.57,4.82,.68,9.32,1.66,13.49,2.94,.09-.04,.15-.1,.18-.17,.37-.98-7.12-4.31-6.78-5.17,.06-.14,.32-.21,.76-.21,2.56,0,11.15,2.26,20.22,5.93-2.9-1.58-5.98-2.96-9.23-4.14-10.3-3.73-22.33-5.51-36.09-5.51"/><path class="c" d="M457.97,400.81h-5.18v3.29c0,14.62,7.89,21.93,23.67,21.93,.09,0,.18,0,.27,0-.34-1.65-.55-3.38-.64-5.18-3.38-.03-6.2-.44-8.46-1.14-1.76-.54-3.17-1.25-4.32-2.08-1.73-1.26-2.95-2.78-3.87-4.94-.91-2.15-1.46-4.99-1.46-8.58v-3.29m-.72-63.89c.09,.06,.18,.13,.27,.19,3.38,2.43,7.19,4.5,11.48,6.2,2.43,.12,4.91,.18,7.46,.19h.02c3.54,0,6.47,.42,8.8,1.14,1.75,.54,3.17,1.25,4.32,2.08,.69,.51,1.31,1.05,1.85,1.67,2.08,.2,4.22,.34,6.43,.44-3.36-7.01-10.5-10.51-21.42-10.51-6.91,0-13.31-.47-19.21-1.4"/><path class="c" d="M484.06,420.03c-1.19,.29-2.52,.51-3.98,.65,.09,1.84,.33,3.55,.7,5.14,1.4-.14,2.72-.35,3.97-.62-.38-1.52-.61-3.23-.68-5.16m-26.39-27.23h-4.89v4.01h5.18v-3.07c-.1,0-.2,.02-.3,.02,0-.32,0-.64,0-.96m36.16-40.19c.41,1.18,.71,2.54,.9,4.07,1.71,.11,3.46,.18,5.24,.23-.13-1.42-.35-2.76-.66-4.02-1.87-.06-3.69-.15-5.48-.28m-51.97-19.59c.44,.58,.9,1.14,1.37,1.7,1.76,2.1,3.68,4.04,5.75,5.84,2.9,.7,5.92,1.27,9.05,1.72-3.27-2.04-6.22-4.38-8.86-7.01-2.55-.65-4.98-1.4-7.31-2.25"/><path class="c" d="M480.08,420.68c-1.12,.1-2.33,.16-3.61,.16h-.05c-.12,0-.23,0-.35,0,.09,1.81,.3,3.54,.64,5.18,1.42,0,2.77-.07,4.06-.2-.37-1.59-.6-3.3-.7-5.14m-22.12-23.87h-5.18v4.01h5.18v-4.01m33.48-48.41c.81,.92,1.47,1.98,2.02,3.27,.13,.3,.25,.62,.36,.95,1.79,.13,3.61,.22,5.48,.28-.36-1.46-.84-2.82-1.43-4.06-2.21-.09-4.35-.24-6.43-.44m-42.28-13.12c2.63,2.63,5.59,4.97,8.86,7.01,3.51,.5,7.17,.85,10.97,1.04-4.28-1.7-8.1-3.77-11.48-6.2-.09-.06-.18-.13-.27-.19-2.81-.44-5.5-.99-8.08-1.65"/><path class="c" d="M405.45,404.1h-5.18c0,11.43,1.54,21.61,4.74,30.53,2.4,6.68,5.76,12.64,10.06,17.77,6.45,7.69,15,13.43,25.29,17.15,2.75,.99,5.62,1.85,8.61,2.57-2.07-1.8-3.99-3.75-5.75-5.84-.47-.56-.92-1.12-1.37-1.7-24.27-8.92-36.4-29.07-36.4-60.47h0m78.67-114.62c.14,1.98,.46,3.73,.93,5.24,16.36,1.01,29.5,5,39.43,11.97,3.81,.64,7.44,1.48,10.88,2.51-6.11-6.33-13.8-11.15-22.83-14.41-8.34-3.02-17.81-4.76-28.42-5.32m15.87-63.91c-1.91,.18-3.62,.49-5.13,.93,.05,.7,.07,1.43,.07,2.19v27.11h28.43v-5.18h-23.25v-21.93c0-1.08-.04-2.12-.13-3.12"/><path class="c" d="M535.81,317.77c7.76,10.57,11.63,24.72,11.63,42.47v43.85c0,43.85-23.67,65.78-71,65.78-6.91,0-13.31-.47-19.21-1.4,.09,.06,.18,.13,.27,.19,3.38,2.43,7.19,4.5,11.48,6.2,2.43,.12,4.91,.18,7.46,.19,12.23,0,23.09-1.41,32.59-4.34,7.12-2.2,13.47-5.26,18.97-9.23,8.26-5.94,14.53-13.92,18.59-23.58,4.08-9.67,6.02-20.96,6.02-33.81v-43.85c0-11.43-1.54-21.61-4.74-30.53-1.04-2.91-2.27-5.68-3.67-8.3-2.59-1.38-5.39-2.6-8.4-3.64m-59.36-111.01c-15.78,0-23.67,7.31-23.67,21.93v43.85c0,14.62,7.89,21.93,23.67,21.93,.09,0,.18,0,.27,0-.34-1.65-.55-3.38-.64-5.18-3.38-.03-6.2-.44-8.46-1.14-1.76-.54-3.17-1.25-4.32-2.08-1.73-1.26-2.95-2.78-3.87-4.94-.91-2.15-1.46-4.99-1.46-8.58v-43.85c0-3.19,.43-5.79,1.17-7.84,.56-1.54,1.27-2.77,2.14-3.82,1.32-1.56,3.02-2.76,5.49-3.66,2.45-.89,5.67-1.42,9.65-1.42h.05c3.54,0,6.47,.42,8.8,1.14,1.75,.54,3.17,1.25,4.32,2.08,1.34,.98,2.38,2.12,3.21,3.59,1.67-.47,3.42-.82,5.28-1.04-3.27-7.3-10.48-10.95-21.63-10.95m59.36-20.55c7.76,10.57,11.63,24.72,11.63,42.47v21.93h-16.07v5.18h21.26v-27.11c0-11.43-1.54-21.62-4.74-30.53-1.04-2.91-2.27-5.68-3.67-8.3-2.59-1.38-5.39-2.6-8.4-3.64"/><path class="c" d="M441.86,464.57c.44,.58,.9,1.14,1.37,1.7,1.76,2.1,3.68,4.05,5.75,5.84,2.9,.7,5.92,1.27,9.05,1.72-3.27-2.04-6.22-4.38-8.86-7.01-2.55-.65-4.98-1.4-7.31-2.25m82.62-157.87c2.35,1.65,4.52,3.47,6.51,5.45,3.31,.84,6.43,1.86,9.36,3.05-.8-1.12-1.64-2.2-2.52-3.25-.79-.94-1.61-1.86-2.46-2.74-3.44-1.03-7.07-1.87-10.88-2.51m-44.38-17.37c.11,1.87,.36,3.6,.75,5.2,1.43,.04,2.83,.11,4.21,.19-.47-1.52-.79-3.26-.93-5.24-1.32-.07-2.66-.12-4.02-.15m47.27-38.71h-4.01v5.18h4.01v-5.18m-28-29.01c-1.83,.18-3.54,.48-5.11,.91,.29,1.18,.5,2.51,.6,3.99,1.5-.44,3.21-.75,5.13-.93-.12-1.4-.33-2.72-.62-3.97"/><path class="c" d="M449.16,466.82c2.63,2.63,5.59,4.97,8.86,7.01,3.51,.5,7.17,.85,10.97,1.04-4.28-1.7-8.1-3.77-11.48-6.2-.09-.06-.18-.13-.27-.19-2.81-.44-5.5-.99-8.08-1.65m81.82-154.67c1.75,1.74,3.36,3.62,4.83,5.62,3.01,1.05,5.81,2.26,8.4,3.64-1.16-2.17-2.45-4.25-3.86-6.21-2.93-1.19-6.05-2.2-9.36-3.05m-54.91-22.87c.09,1.81,.3,3.54,.64,5.18,1.39,0,2.77,.02,4.12,.06-.39-1.6-.64-3.34-.75-5.2-1.2-.03-2.42-.04-3.65-.04h-.02c-.12,0-.23,0-.35,0m55.29-38.67h-4.01v5.18h4.01v-5.18m-33.29-32.9c-1.85,.22-3.61,.57-5.28,1.04,.24,.42,.46,.87,.67,1.36,.31,.72,.57,1.52,.79,2.4,1.57-.42,3.28-.72,5.11-.91-.32-1.39-.76-2.69-1.29-3.89m34.91-35c.99,1.12,1.94,2.29,2.83,3.5,3.01,1.04,5.81,2.26,8.4,3.64-.82-1.53-1.7-3.02-2.65-4.45-.05,0-.11,0-.16,0-.27,0-.45,.06-.52,.19-.1,.17-.02,.48,.44,1.03-2.78-1.3-5.56-2.61-8.34-3.92"/><path class="c" d="M501.54,161.45c-.44,0-.7,.07-.76,.21-.34,.86,7.15,4.19,6.78,5.17-.03,.07-.09,.13-.18,.17,6.48,1.99,12.18,4.71,17.09,8.16,3.81,.64,7.44,1.48,10.88,2.51-3.9-4.05-8.46-7.48-13.59-10.28-9.07-3.68-17.66-5.93-20.22-5.93"/><path class="c" d="M524.48,175.15c2.35,1.65,4.52,3.47,6.51,5.45,3.31,.84,6.43,1.86,9.36,3.05-.8-1.12-1.64-2.2-2.52-3.25-.79-.94-1.61-1.85-2.46-2.74-3.44-1.03-7.07-1.87-10.88-2.51"/><path class="c" d="M530.99,180.6c.69,.69,1.35,1.39,2,2.12,2.78,1.3,5.56,2.61,8.34,3.92-.45-.55-.53-.86-.44-1.03,.07-.13,.25-.19,.52-.19,.05,0,.1,0,.16,0-.39-.6-.8-1.19-1.21-1.77-2.93-1.19-6.05-2.21-9.36-3.05"/><path class="c" d="M492,163.48c.31,.15,.62,.29,.94,.44,.32,.04,.64,.08,.95,.13-.61-.18-1.24-.37-1.89-.57"/><path class="c" d="M457.74,377.11c-.03,5.18-.04,10.49-.07,15.69h.29v-15.57c-.07-.04-.15-.08-.22-.12"/><path class="c" d="M457.97,392.8h-.29c0,.32,0,.64,0,.96,.1,0,.2-.02,.3-.02v-.94"/><path class="c" d="M476.45,162.91c-47.33,0-71,21.93-71,65.78v43.85c0,31.4,12.14,51.56,36.4,60.47,2.33,.85,4.76,1.6,7.31,2.25,2.58,.66,5.27,1.21,8.08,1.65,5.9,.93,12.3,1.4,19.21,1.4,10.92,0,18.06,3.5,21.42,10.51,.6,1.24,1.07,2.6,1.43,4.06,.31,1.26,.53,2.6,.66,4.02,.1,1.06,.15,2.18,.15,3.33v43.85c0,11.78-5.12,18.81-15.37,21.1-1.25,.28-2.57,.49-3.97,.62-1.29,.13-2.64,.19-4.06,.2-.09,0-.18,0-.27,0-15.78,0-23.67-7.31-23.67-21.93v-21.93h-47.33v21.93h5.18v-16.74h36.96v16.74c0,4.12,.55,7.91,1.78,11.35,.92,2.57,2.24,4.94,3.96,6.97,2.57,3.07,5.99,5.34,9.9,6.74,3.92,1.42,8.32,2.04,13.21,2.04,4.34,0,8.3-.5,11.88-1.6,2.68-.83,5.15-2.01,7.32-3.57,3.27-2.34,5.79-5.57,7.36-9.32,1.58-3.76,2.28-7.99,2.28-12.62v-43.85c0-4.12-.55-7.91-1.79-11.35-.92-2.57-2.24-4.93-3.96-6.97-2.57-3.07-5.99-5.34-9.9-6.74-3.92-1.42-8.32-2.04-13.21-2.05h-.02c-11.43,0-21.27-1.33-29.51-3.88-6.19-1.91-11.49-4.5-15.97-7.73-6.72-4.86-11.68-11.13-15.1-19.2-3.41-8.06-5.21-17.96-5.21-29.78v-43.85c0-10.5,1.42-19.5,4.13-27.02,2.03-5.65,4.78-10.48,8.24-14.61,5.2-6.18,12.04-10.85,20.88-14.07,8.83-3.21,19.67-4.89,32.53-4.89h.05c11.43,0,21.26,1.33,29.51,3.88,6.19,1.91,11.49,4.5,15.97,7.73,6.72,4.86,11.68,11.13,15.1,19.2,3.41,8.06,5.21,17.97,5.21,29.78v16.74h-36.96v-16.74c0-4.12-.55-7.91-1.79-11.35-.92-2.57-2.24-4.93-3.96-6.97-2.57-3.07-5.99-5.34-9.9-6.74-3.92-1.42-8.32-2.04-13.21-2.05-4.34,0-8.3,.5-11.88,1.6-2.68,.83-5.15,2.01-7.32,3.57-3.27,2.34-5.79,5.57-7.36,9.32-1.58,3.76-2.28,7.99-2.28,12.61v43.85c0,4.12,.55,7.91,1.78,11.35,.92,2.57,2.24,4.94,3.96,6.97,2.57,3.07,5.99,5.34,9.9,6.74,3.92,1.42,8.32,2.04,13.21,2.04h.02c11.43,0,21.26,1.33,29.51,3.88,6.19,1.91,11.49,4.5,15.97,7.73,6.72,4.86,11.68,11.13,15.1,19.2,3.41,8.06,5.21,17.96,5.21,29.78v43.85c0,10.5-1.42,19.5-4.13,27.02-2.03,5.65-4.78,10.48-8.24,14.61-5.2,6.18-12.04,10.85-20.88,14.07-8.83,3.21-19.67,4.89-32.53,4.89h-.05c-11.43,0-21.26-1.33-29.51-3.88-6.19-1.91-11.49-4.5-15.97-7.73-6.72-4.86-11.68-11.13-15.1-19.2-3.41-8.06-5.21-17.97-5.21-29.78h-5.18c0,31.4,12.14,51.56,36.4,60.47,2.33,.85,4.76,1.6,7.31,2.25,2.58,.66,5.27,1.21,8.08,1.65,5.9,.93,12.3,1.4,19.21,1.4,47.33,0,71-21.93,71-65.78v-43.85c0-17.75-3.88-31.91-11.63-42.47-1.47-2-3.08-3.88-4.83-5.62-1.99-1.98-4.16-3.8-6.51-5.45-9.92-6.97-23.07-10.96-39.43-11.97-1.38-.09-2.78-.15-4.21-.19-1.35-.04-2.73-.06-4.12-.06-.09,0-.18,0-.27,0-15.78,0-23.67-7.31-23.67-21.93v-43.85c0-14.61,7.89-21.93,23.67-21.93,11.15,0,18.36,3.65,21.63,10.95,.54,1.2,.97,2.49,1.29,3.89,.29,1.24,.49,2.56,.62,3.97,.09,1,.13,2.04,.13,3.12v21.93h47.33v-21.93c0-17.75-3.88-31.91-11.63-42.47-.89-1.22-1.84-2.38-2.83-3.5-.64-.73-1.31-1.43-2-2.12-1.99-1.98-4.16-3.8-6.51-5.45-4.91-3.45-10.61-6.17-17.09-8.16-4.17-1.28-8.67-2.26-13.49-2.94-.32-.04-.63-.09-.95-.13-5.14-.67-10.63-1.01-16.49-1.01"/><path class="c" d="M104.5,552.59c-6.16,0-10.32,4.23-10.32,10.32v24.13c0,6.09,4.17,10.32,10.32,10.32s10.32-4.23,10.32-10.32v-6.22h-6.47v6.22c0,2.55-1.56,4.1-3.79,4.1s-3.79-1.55-3.79-4.1v-24.13c0-2.55,1.56-4.1,3.79-4.1s3.79,1.55,3.79,4.1v5.1h6.47v-5.1c0-6.09-4.17-10.32-10.32-10.32"/><path class="c" d="M131.12,591.16c-2.43,0-3.98-1.55-3.98-4.29v-23.76c0-2.74,1.55-4.29,3.98-4.29s3.98,1.55,3.98,4.29v23.76c0,2.74-1.55,4.29-3.98,4.29m0-38.56c-6.34,0-10.57,4.23-10.57,10.51v23.76c0,6.28,4.23,10.51,10.57,10.51s10.57-4.23,10.57-10.51v-23.76c0-6.28-4.23-10.51-10.57-10.51"/><polyline class="c" points="178.33 553.22 168.88 553.22 163.4 581.02 157.68 553.22 148.35 553.22 148.35 596.75 154.82 596.75 154.82 566.9 160.98 596.75 165.58 596.75 171.74 566.9 171.74 596.75 178.33 596.75 178.33 553.22"/><path class="c" d="M192.14,572.87v-13.43h3.42c2.55,0,4.04,1.49,4.04,4.04v5.35c0,2.55-1.49,4.04-4.04,4.04h-3.42m3.73-19.65h-10.32v43.54h6.59v-17.66h3.73c6.28,0,10.32-4.11,10.32-10.39v-5.1c0-6.28-4.04-10.39-10.32-10.39"/><path class="c" d="M231.88,553.22h-6.47v33.96c0,2.55-1.55,3.98-3.67,3.98s-3.67-1.43-3.67-3.98v-33.96h-6.59v33.96c0,6.09,4.23,10.2,10.26,10.2s10.14-4.11,10.14-10.2v-33.96"/><polyline class="c" points="257.76 553.22 236.73 553.22 236.73 559.44 243.95 559.44 243.95 596.75 250.54 596.75 250.54 559.44 257.76 559.44 257.76 553.22"/><polyline class="c" points="281.58 553.22 262.86 553.22 262.86 596.75 281.58 596.75 281.58 590.53 269.45 590.53 269.45 577.78 279.09 577.78 279.09 571.56 269.45 571.56 269.45 559.44 281.58 559.44 281.58 553.22"/><path class="c" d="M293.71,572.56v-13.12h3.42c2.55,0,4.04,1.49,4.04,4.04v5.04c0,2.55-1.49,4.04-4.04,4.04h-3.42m3.73-19.34h-10.32v43.54h6.59v-17.97h3.42l4.79,17.97h6.84l-5.54-19.47c2.86-1.74,4.54-4.85,4.54-8.89v-4.79c0-6.28-4.04-10.39-10.32-10.39"/><path class="c" d="M335.5,552.59c-6.28,0-10.01,4.23-10.01,10.7,0,4.79,1.87,8.15,8.4,14.3,4.91,4.67,6.03,6.66,6.03,9.39,0,2.55-1.62,4.17-4.23,4.17s-4.23-1.93-4.23-5.1v-1.62l-6.34,.68v1.56c0,6.22,4.35,10.7,10.64,10.7s10.64-4.48,10.64-10.7c0-4.79-2.05-7.96-8.4-14.3-4.66-4.67-6.03-6.66-6.03-9.39s1.31-4.17,3.61-4.17,3.61,1.74,3.61,5.1v1.24l6.34-.68v-1.12c0-6.53-3.73-10.76-10.01-10.76"/><path class="c" d="M361.75,552.59c-6.16,0-10.32,4.23-10.32,10.32v24.13c0,6.09,4.17,10.32,10.32,10.32s10.32-4.23,10.32-10.32v-6.22h-6.47v6.22c0,2.55-1.56,4.1-3.79,4.1s-3.79-1.55-3.79-4.1v-24.13c0-2.55,1.56-4.1,3.79-4.1s3.79,1.55,3.79,4.1v5.1h6.47v-5.1c0-6.09-4.17-10.32-10.32-10.32"/><polyline class="c" points="384.7 553.22 378.11 553.22 378.11 596.75 384.7 596.75 384.7 553.22"/><polyline class="c" points="410.64 553.22 391.91 553.22 391.91 596.75 410.64 596.75 410.64 590.53 398.51 590.53 398.51 577.78 408.15 577.78 408.15 571.56 398.51 571.56 398.51 559.44 410.64 559.44 410.64 553.22"/><polyline class="c" points="438.31 553.22 431.84 553.22 431.84 582.45 423.45 553.22 416.17 553.22 416.17 596.75 422.64 596.75 422.64 568.89 431.35 596.75 438.31 596.75 438.31 553.22"/><path class="c" d="M455.29,552.59c-6.16,0-10.32,4.23-10.32,10.32v24.13c0,6.09,4.17,10.32,10.32,10.32s10.32-4.23,10.32-10.32v-6.22h-6.47v6.22c0,2.55-1.55,4.1-3.79,4.1s-3.79-1.55-3.79-4.1v-24.13c0-2.55,1.55-4.1,3.79-4.1s3.79,1.55,3.79,4.1v5.1h6.47v-5.1c0-6.09-4.17-10.32-10.32-10.32"/><polyline class="c" points="490.37 553.22 471.65 553.22 471.65 596.75 490.37 596.75 490.37 590.53 478.24 590.53 478.24 577.78 487.88 577.78 487.88 571.56 478.24 571.56 478.24 559.44 490.37 559.44 490.37 553.22"/><path class="c" d="M517.24,552.59c-6.28,0-10.01,4.23-10.01,10.7,0,4.79,1.87,8.15,8.4,14.3,4.91,4.67,6.03,6.66,6.03,9.39,0,2.55-1.62,4.17-4.23,4.17s-4.23-1.93-4.23-5.1v-1.62l-6.34,.68v1.56c0,6.22,4.35,10.7,10.64,10.7s10.63-4.48,10.63-10.7c0-4.79-2.05-7.96-8.4-14.3-4.67-4.67-6.03-6.66-6.03-9.39s1.31-4.17,3.61-4.17,3.61,1.74,3.61,5.1v1.24l6.34-.68v-1.12c0-6.53-3.73-10.76-10.01-10.76"/><path class="c" d="M543.74,591.16c-2.43,0-3.98-1.55-3.98-4.29v-23.76c0-2.74,1.55-4.29,3.98-4.29s3.98,1.55,3.98,4.29v23.76c0,2.74-1.56,4.29-3.98,4.29m0-38.56c-6.34,0-10.57,4.23-10.57,10.51v23.76c0,6.28,4.23,10.51,10.57,10.51s10.57-4.23,10.57-10.51v-23.76c0-6.28-4.23-10.51-10.57-10.51"/><path class="c" d="M570.73,552.59c-6.16,0-10.32,4.23-10.32,10.32v24.13c0,6.09,4.17,10.32,10.32,10.32s10.32-4.23,10.32-10.32v-6.22h-6.47v6.22c0,2.55-1.55,4.1-3.79,4.1s-3.79-1.55-3.79-4.1v-24.13c0-2.55,1.55-4.1,3.79-4.1s3.79,1.55,3.79,4.1v5.1h6.47v-5.1c0-6.09-4.17-10.32-10.32-10.32"/><polyline class="c" points="593.68 553.22 587.09 553.22 587.09 596.75 593.68 596.75 593.68 553.22"/><polyline class="c" points="619.62 553.22 600.9 553.22 600.9 596.75 619.62 596.75 619.62 590.53 607.49 590.53 607.49 577.78 617.13 577.78 617.13 571.56 607.49 571.56 607.49 559.44 619.62 559.44 619.62 553.22"/><polyline class="c" points="644.06 553.22 623.04 553.22 623.04 559.44 630.25 559.44 630.25 596.75 636.84 596.75 636.84 559.44 644.06 559.44 644.06 553.22"/><polyline class="c" points="671.05 553.22 664.15 553.22 658.92 569.82 653.82 553.22 646.8 553.22 655.63 578.53 655.63 596.75 662.22 596.75 662.22 578.53 671.05 553.22"/><path class="c" d="M361.59,621.54h-6.47v33.96c0,2.55-1.55,3.98-3.67,3.98s-3.67-1.43-3.67-3.98v-33.96h-6.59v33.96c0,6.1,4.23,10.2,10.26,10.2s10.14-4.1,10.14-10.2v-33.96"/><path class="c" d="M377.45,620.92c-6.28,0-10.01,4.23-10.01,10.7,0,4.79,1.87,8.15,8.4,14.3,4.91,4.67,6.03,6.66,6.03,9.39,0,2.55-1.62,4.17-4.23,4.17s-4.23-1.93-4.23-5.1v-1.62l-6.34,.68v1.56c0,6.22,4.35,10.7,10.63,10.7s10.64-4.48,10.64-10.7c0-4.79-2.05-7.96-8.4-14.31-4.66-4.66-6.03-6.65-6.03-9.39s1.31-4.17,3.61-4.17,3.61,1.74,3.61,5.1v1.24l6.34-.68v-1.12c0-6.53-3.73-10.76-10.01-10.76"/><polyline class="c" points="423.91 621.54 414.46 621.54 408.98 649.34 403.26 621.54 393.93 621.54 393.93 665.07 400.4 665.07 400.4 635.22 406.56 665.07 411.16 665.07 417.32 635.22 417.32 665.07 423.91 665.07 423.91 621.54"/></svg>