<?xml version="1.0" encoding="UTF-8"?><svg xmlns="http://www.w3.org/2000/svg" viewBox="0 0 447.12 108"><defs><style>.d,.e{fill:#fff;}.e{fill-rule:evenodd;}</style></defs><g id="a"/><g id="b"><g id="c"><g><g><g><path class="d" d="M7.51,104.46c0,1.76-.71,3.54-3.62,3.54s-3.64-1.78-3.64-3.54v-11.71H2.38v12.07c0,1.03,.39,1.55,1.5,1.55s1.48-.52,1.48-1.55v-12.07h2.15v11.71Z"/><path class="d" d="M9.03,92.75h2.96l2.53,12.57h.05v-12.57h2.02v15.13h-3.09l-2.53-12.91h-.04v12.91h-1.88v-15.13Z"/><path class="d" d="M18.1,92.75h2.14v15.13h-2.14v-15.13Z"/><path class="d" d="M21.14,92.75h2.14l2.23,12.03h.05l2.23-12.03h2.14l-3.15,15.13h-2.49l-3.15-15.13Z"/><path class="d" d="M30.89,92.75h5.83v1.76h-3.69v4.74h3.47v1.76h-3.47v5.11h3.69v1.76h-5.83v-15.13Z"/><path class="d" d="M37.65,92.75h3.32c3.13,0,3.45,.82,3.45,4.13,0,2.03-.28,2.91-2.04,3.44v.04c1.46,.15,1.95,.88,1.95,2.3v3.29c0,.54,0,1.3,.13,1.93h-2.02c-.21-.38-.26-.76-.26-1.36v-3.41c0-1.43-.26-1.8-1.68-1.8h-.73v6.58h-2.14v-15.13Zm2.14,6.79h.56c1.7,0,1.93-.31,1.93-2.58s-.13-2.45-1.46-2.45h-1.03v5.03Z"/><path class="d" d="M45.75,103.5h2.14v1.24c0,1,.39,1.63,1.24,1.63,1.14,0,1.42-.75,1.42-1.74,0-1.28-.07-1.7-2.3-3.86-1.37-1.34-2.51-2.56-2.51-4.61,0-2.47,1.18-3.54,3.52-3.54,1.16,0,2,.38,2.51,.84,.36,.34,.62,.86,.62,1.93v1.42h-2.02v-1.2c0-.85-.37-1.36-1.2-1.36-.88,0-1.29,.48-1.29,1.66,0,1.03,.22,1.65,2.19,3.67,2.11,2.14,2.49,2.87,2.49,4.69,0,2.37-.94,3.73-3.49,3.73-1.97,0-3.32-.81-3.32-2.7v-1.8Z"/><path class="d" d="M53.56,92.75h2.14v15.13h-2.14v-15.13Z"/><path class="d" d="M56.56,92.75h7.29v1.76h-2.57v13.37h-2.14v-13.37h-2.57v-1.76Z"/><path class="d" d="M64.7,92.75h2.15v15.13h-2.15v-15.13Z"/><path class="d" d="M71.89,103.5h2.14v1.24c0,1,.39,1.63,1.24,1.63,1.13,0,1.41-.75,1.41-1.74,0-1.28-.06-1.7-2.29-3.86-1.38-1.34-2.51-2.56-2.51-4.61,0-2.47,1.18-3.54,3.52-3.54,1.16,0,1.99,.38,2.51,.84,.37,.34,.62,.86,.62,1.93v1.42h-2.02v-1.2c0-.85-.37-1.36-1.2-1.36-.88,0-1.29,.48-1.29,1.66,0,1.03,.22,1.65,2.19,3.67,2.1,2.14,2.49,2.87,2.49,4.69,0,2.37-.95,3.73-3.5,3.73-1.97,0-3.32-.81-3.32-2.7v-1.8Z"/><path class="d" d="M82.31,92.75h2.49l3.16,15.13h-2.15l-.71-3.86h-3.35l-.71,3.86h-2.14l3.41-15.13Zm-.23,9.51h2.72l-1.33-7.29h-.04l-1.35,7.29Z"/><path class="d" d="M88.62,92.75h2.14v15.13h-2.14v-15.13Z"/><path class="d" d="M92.28,92.75h2.96l2.53,12.57h.04v-12.57h2.01v15.13h-3.09l-2.53-12.91h-.04v12.91h-1.89v-15.13Z"/><path class="d" d="M100.89,103.5h2.14v1.24c0,1,.38,1.63,1.24,1.63,1.14,0,1.41-.75,1.41-1.74,0-1.28-.06-1.7-2.29-3.86-1.37-1.34-2.5-2.56-2.5-4.61,0-2.47,1.18-3.54,3.51-3.54,1.16,0,1.99,.38,2.51,.84,.37,.34,.62,.86,.62,1.93v1.42h-2.01v-1.2c0-.85-.37-1.36-1.21-1.36s-1.28,.48-1.28,1.66c0,1.03,.21,1.65,2.18,3.67,2.1,2.14,2.49,2.87,2.49,4.69,0,2.37-.94,3.73-3.5,3.73-1.97,0-3.32-.81-3.32-2.7v-1.8Z"/><path class="d" d="M112.51,92.75h3.41l1.97,11.52h.04l1.97-11.52h3.33v15.13h-2.02v-13.62h-.05l-2.18,13.62h-2.14l-2.4-13.62h-.04v13.62h-1.89v-15.13Z"/><path class="d" d="M127.33,92.75h2.49l3.15,15.13h-2.14l-.7-3.86h-3.35l-.71,3.86h-2.14l3.41-15.13Zm-.24,9.51h2.72l-1.33-7.29h-.05l-1.35,7.29Z"/><path class="d" d="M133.74,92.75h2.14v13.37h3.6v1.76h-5.74v-15.13Z"/><path class="d" d="M143.34,92.75h2.49l3.15,15.13h-2.15l-.71-3.86h-3.34l-.71,3.86h-2.15l3.41-15.13Zm-.24,9.51h2.72l-1.33-7.29h-.04l-1.35,7.29Z"/><path class="d" d="M147.57,92.75h2.14l1.87,6.37h.04l2.14-6.37h1.89l-2.98,8.93v6.2h-2.14v-6.2l-2.96-8.93Z"/><path class="d" d="M155.54,103.5h2.14v1.24c0,1,.39,1.63,1.24,1.63,1.14,0,1.41-.75,1.41-1.74,0-1.28-.07-1.7-2.3-3.86-1.37-1.34-2.5-2.56-2.5-4.61,0-2.47,1.18-3.54,3.51-3.54,1.16,0,1.99,.38,2.51,.84,.37,.34,.62,.86,.62,1.93v1.42h-2.01v-1.2c0-.85-.37-1.36-1.2-1.36-.88,0-1.29,.48-1.29,1.66,0,1.03,.22,1.65,2.19,3.67,2.1,2.14,2.49,2.87,2.49,4.69,0,2.37-.94,3.73-3.49,3.73-1.97,0-3.32-.81-3.32-2.7v-1.8Z"/><path class="d" d="M163.44,92.75h2.15v15.13h-2.15v-15.13Z"/><path class="d" d="M169.96,92.75h2.49l3.15,15.13h-2.14l-.71-3.86h-3.35l-.71,3.86h-2.14l3.41-15.13Zm-.24,9.51h2.72l-1.33-7.29h-.05l-1.35,7.29Z"/></g><path class="d" d="M0,85.97v1.12H175.68v-1.12H0Z"/><g><path class="e" d="M8.02,18.01c.65,.15,1.06,.54,1.52,.89,1.29-.62,3.26-.58,4.69-.13-1.53,.12-5.05,.35-4.81,1.14-.35,.31-.96-.22-1.52-.13,.62-.41,.04-.9,.13-1.78Z"/><path class="e" d="M68.04,18.01c.75,.28-.52,1.58,.38,1.65-.38,.26-1,.27-1.52,.38,.07-.1,.13-.21,.13-.38-1.34-.56-2.91-.9-4.94-.76,1.16-.66,3.39-.63,4.56,0,.49-.27,.95-.58,1.39-.89Z"/><path class="e" d="M15.37,19.28c.79,.06,1.88,.91,2.91,1.14-.34,.29-1.12-.05-1.52-.13-1.1,.66-2.75,2.43-4.18,.89-.17,.04-.2,.22-.38,.25,0,1.07,.99,1.13,1.77,1.4-.9,.27-2.3-.06-2.66-.76,.1-.58,.17-1.18,.76-1.27-.63-1.46,1.33-1.84,2.4-1.27-.54,.26-1.62-.02-1.65,.76,.55-.12,2.09-.52,2.66,.25,.32,.02,.4-.19,.51-.38,.03-.54-.26-.75-.63-.89Zm-2.28,1.78c.5,.28,2.26,.74,1.9-.25-.48-.09-.09,.68-.63,.51-.32-.01-.25-.42-.25-.76-.47,.04-.81,.2-1.01,.51Z"/><path class="e" d="M60.69,19.15c.55,.09-.64,.39-.38,1.02,.07,.1,.13,.2,.13,.38,.95-.23,2.01-.9,2.91-.12,.04-.81-.72-.81-1.52-.76,.78-.77,3.02-.33,2.4,1.02,.48,.34,.84,.97,.63,1.65-.57,.48-1.49,.62-2.54,.63,.57-.49,1.69-.43,1.77-1.4-.04-.17-.22-.2-.25-.38-2.3,2.02-3.31-1.7-5.82-.64,.76-.59,1.94-.76,2.66-1.4Zm1.14,2.16c-.4,.06-.05-.63-.51-.51-.42,.93,1.53,.66,1.77,.13-.22-.12-.7-.64-1.01-.25,.29,.1,.12,.79-.25,.63Z"/><path class="e" d="M6.88,19.53c.33,.42-.81,.22-.88,.64,.33,1.36,1.44,1.95,2.91,2.16-.12,.56-1.06,.82-1.65,.51-.59,1.56-.16,4.09,.25,5.47,1.85,.09,2.51,1.37,4.81,1.02-1.12,1.07-2.96,.41-4.3,0,.28,.87,.74,1.54,1.27,2.16,2.67-.03,3.5-1.91,6.08-2.03-1.92,.83-2.41,3.09-4.81,3.43,.47,.33,.79,.82,1.26,1.14,.43-.97,1.05-1.75,2.03-2.16-.34,.63-.83,1.12-1.01,1.91,1.16-.37,1.95-2.87,3.93-2.41-1.88,.91-2.4,3.18-4.3,4.07-.06,.45-.19,.83-.13,1.4,1.86-.8,2.55-2.78,5.19-2.8-2.04,1.09-3.12,3.14-5.06,4.32,.9,.96,2.43-.36,3.67-.25,.98,.08,1.22,.61,2.03,1.01-1.68-.22-4.76-.06-5.83,1.15,1.98,.43,2.77,2.05,5.19,2.03-1.94,1.08-4-.63-5.82-.89-.54,.09-.56,.71-.89,1.02,1.82,1.1,3.65,2.19,6.08,2.67-2.6,.82-4.73-.77-6.58-1.52,.11-1.43,1.14-2.62,1.27-3.94,.07-.75-.38-1.92-.38-2.92,0-.37,.19-.83,.13-1.14-.25-1.32-2.05-2.52-3.04-3.81-1.71-2.23-2.66-5.12-1.65-9.15-.5-.9-1.52-1.27-1.52-2.67,.54-.18,1.14-.29,1.77-.38Z"/><path class="e" d="M6.88,20.42c.66-.23,2.19-.25,2.53,.25-.39,1.12-2.14,.21-2.53-.25Z"/><path class="e" d="M69.43,20.29c-.29,.64-1.95,1.37-2.53,.51,.22-.79,1.62-.41,2.53-.51Z"/><path class="e" d="M65.63,20.68c1.04,.62,1.96,2.25,1.27,3.81-.26-.03-.04-.56-.25-.63-.5,.94-.73,2.14-2.41,1.91-.39,.21-.79,.39-.88,.89-.35-2,3.42-.96,2.79-3.69,.17-.15,.2-.05,.38,0,.07-1.13-.65-1.47-.89-2.29Z"/><path class="e" d="M57.4,20.8c-.05,.25-.36,.23-.25,.64,.46,.34,1.08-.04,1.52-.13-.15,.48-.51,.75-1.01,.89-.11,3.35,5.13-.2,4.94,3.18,.32-.49,.11-1.55-.38-1.65,.67-.31,1.09,.53,1.14,1.01,.25,2.34-2.36,2.05-4.56,2.04-.26-.25-.62-.4-.63-.89-.16,.54-.56,1.15-.25,1.78,1.82-1.24,3.99,1.12,5.32-.38-.07,.41,.09,.59,.13,.89,.53-.14,.49-.86,1.01-1.02,.38-.05,.26,.41,.38,.63,1.36-.88,2.48-2,2.78-3.94,.72,2.67-1.81,3.18-2.28,5.08-.93-.58-1.13-.66-1.77,.25-.21-.21-.51-.33-.51-.76-.81,.48-1.53,.11-2.15-.25-.49,.02-.31,.71-.63,.89-.77,.32-1.94,.26-3.04,.25-.57,.87-2.09,.78-2.66,1.65-.04-.55,.81-1.3,1.64-1.4,.33-.29-.34-.34,0-.63,1.02-.33,2.99,.3,3.29-.76,.11-.41-.33-.26-.38-.51-.54,.09-.88,.39-.89,1.02-.86-.49-1.05-1.75-.51-2.67-.95-.34-2.13-1.15-1.39-2.41,.41,2.44,4.54,.41,5.44,2.41,.38-.64-.06-1.55-.51-1.78-1.05-.14-1.54,.42-2.28,.38-1.87-.11-1.59-2.01-2.41-3.43,.29-.13,.41-.44,.88-.38Zm2.28,5.21c-.32-.11-.68-.17-1.14-.13-.02,.53,1,.47,1.14,.13Z"/><path class="e" d="M16.76,21.82c-1.22,.09-1.42,1.2-2.28,1.65,0-1.32,1.01-1.62,2.28-1.65Z"/><path class="e" d="M59.43,21.95c1.09-.29,2.48,.22,2.41,1.53-1-.31-.86-1.76-2.41-1.53Z"/><path class="e" d="M16.38,22.58c.38-.29,1.3-.04,1.9-.13-.22,.6-1.48,.41-1.9,.13Z"/><path class="e" d="M58.04,22.58c.38-.29,1.3-.04,1.9-.13-.24,.51-1.51,.49-1.9,.13Z"/><path class="e" d="M39.04,36.31c.09,1-1.87,1.05-1.77,0,.56-.33,1.16-.2,1.77,0Z"/><path class="e" d="M33.98,42.03c1.03,1.46-1.72,2.26-2.91,1.52,1.35-.13,2.36-.59,2.91-1.52Z"/><path class="e" d="M42.21,42.03c.74,.74,1.4,1.56,3.04,1.4-1.08,1-3.98,.01-3.04-1.4Z"/><path class="e" d="M48.92,46.98c.63,.26,.34,1.43,.88,1.78,.58-.17,.86-.66,.76-1.53,.92,.71-.35,1.71,.25,2.41-1.73,.12-2.12-1.16-1.9-2.67Z"/><path class="e" d="M42.71,51.31c.57,.86,2.12,2.06,1.01,3.43,.25,.29,.11,.96,0,1.27-.77-.41-1.38-.98-2.41-1.14,.35-.28,1-.26,1.65-.25-.27-.45-1.16-.27-1.65-.51,.46-.3,1.05-.47,1.65-.64-.49-.42-1.04-.1-1.77-.12,.26-.38,.63-.63,1.14-.76-.37-.32-1.22-.04-1.65,0,.53-.57,.91-1.29,2.03-1.27Z"/><path class="e" d="M23.97,70.88c.24-.39,.55,.2,.89,.13-.09,.41-.23,.79-.38,1.14,.48,.08,.95-1.36,1.77-.63-.45,.48-1.02,.84-1.52,1.27,.24,.69,.05,1.81,.38,2.41-.39-.03-.57-.27-.89-.38-.05-.5,.12-1.22-.13-1.53-.23,.36-.35,.84-.51,1.27-.39,.01-.6-.15-.89-.25,.74-.74,1.32-2.31,1.27-3.43Z"/><path class="e" d="M52.08,72.91c.15-.45-.52-1.17-.51-1.91,.27-.07,.36-.32,.76-.25-.04,1.13,.4,2.79,1.27,3.43-1.02,1.08-1.51-.81-2.28-1.14,.2,.65,.47,1.21,.63,1.91-.22,.07-.52,.07-.63,.25-.2-1.05-.66-2.77-1.39-3.68,.36-.02,.53-.23,.89-.25,.37,.6,.91,1.03,1.26,1.65Z"/><path class="e" d="M49.8,71.64c.3,1.31,.51,2.71,1.14,3.69-.4-.06-.45,.23-.88,.13-.35-1.18-.36-2.69-1.14-3.43,.11-.31,.51-.34,.88-.38Z"/><path class="e" d="M27.14,71.77c.3-.05,.28,.23,.63,.13,.05,1.35-.12,2.92,.12,4.07-.14-.11-.34-.17-.63-.13-.2-.18-.11-.65-.13-1.02-.02-.23-.43-.08-.51-.25-.48,.03-.49,.52-.63,.89-.3,0-.38-.22-.76-.13,.77-1.04,1.26-2.38,1.9-3.56Zm-.51,2.29c.22,0,.39,.03,.51,.13-.08-.3,.16-.92-.12-1.02-.03,.39-.28,.57-.38,.89Z"/><path class="e" d="M28.79,72.15c.3,.04,.48,.2,.88,.13,.11,.53,.06,1.21,.26,1.65,.34-.38,.49-.95,.76-1.4,.41-.07,.59,.09,.89,.13-.51,.91-.82,2.61-.63,3.81-.3-.04-.47-.2-.89-.13,.11-.53,.25-1.02,.25-1.65-.37,.18-.2,.9-.76,.89-.14-.37-.28-.73-.25-1.27-.26,.46-.18,1.26-.38,1.78-.39,.09-.46-.13-.76-.13,.42-1.01,.82-2.61,.63-3.81Z"/><path class="e" d="M49.17,74.18c-.32,.15-.43,.51-.89,.51-.09,.56,.22,.72,.13,1.27-.4-.06-.45,.23-.89,.13,.42-.97-.23-2.85-.63-3.81,1.51-.5,2.61,.17,2.28,1.91Zm-.89-.13c.54-.27,.2-1.45-.38-1.4,.06,.53-.07,1.25,.38,1.4Z"/><path class="e" d="M46.77,72.41c-.4,.87-.07,2.97,.51,3.69-.15,.23-.66,.1-.88,.25-.08-.6-.2-1.16-.25-1.78-.31,.2,.05,1.07-.38,1.14-.47-.03-.49-.52-.63-.89-.27,.32,.01,1.17,.12,1.53-.18,.19-.49,.26-.89,.25,.34-.88-.06-2.91-.51-3.81,.44,.1,.49-.19,.89-.13,.27,.45,.42,1.02,.76,1.4,.27-.36,.06-1.21,.38-1.53,.16-.17,.55-.12,.88-.13Z"/><path class="e" d="M31.83,72.66c.29,.09,.65,.11,.89,.25-.1,1.04-.67,2.84-.25,3.56-.06,.28-.62,.05-.89,.13,.01-1.33,.58-2.68,.25-3.94Z"/><path class="e" d="M43.47,72.79c.45,1.03-.03,3,.76,3.69-.19,.19-.56,.2-.89,.25-.29-1.19-.1-2.86-.63-3.81,.39,.09,.37-.22,.76-.13Z"/><path class="e" d="M34.36,72.91h.88c.16,.51,.35,1.01,.38,1.65,.48-.24,.47-.96,.63-1.52h1.01c-.59,.76-.43,2.83-.25,3.94-.3-.04-.48-.2-.89-.13,0-.64,.22-1.05,.13-1.78-.36,.28-.13,1.14-.76,1.15-.11-.31-.29-.55-.25-1.02-.34,.29-.24,1.03-.25,1.65h-.76c.36-.94,.39-3.17,.13-3.94Z"/><path class="e" d="M41.57,72.91h.89c-.28,.71-.26,2.96,.25,3.69-.18,.2-.49,.27-.89,.25,.09-.72-.21-1.05-.13-1.78-.23,.28-.14,.88-.38,1.15-.53-.02-.47-.62-.63-1.02-.32,.37-.04,1.23,0,1.65-.44-.1-.49,.19-.88,.13,.31-.79,.32-2.99-.25-3.69,.03-.39,.63-.22,1.01-.25,.09,.63,.44,1,.51,1.65,.34-.42,.32-1.21,.51-1.78Z"/><path class="e" d="M37.4,73.04c.59,.08,1.52-.17,1.9,.13v.25c.08,.5-.7,.15-1.01,.25v.76c.02,.37,.87-.11,.89,.25,.14,.6-.41,.52-.89,.51v1.02c.13,.29,.8,.05,1.14,.13,.22,1.01-1.52,.63-2.03,.5,.44-.76,.38-3.04,0-3.81Z"/><path class="e" d="M23.47,28.94c.94,1.39,1.68,2.98,2.91,4.07-1.09,.12-1.86-1.18-2.53-1.91,.29,1.62,1.25,2.56,1.64,4.07,3.08-.35,.88-4.73,1.14-7.12,.67,1.4,.97,3.18,1.14,5.08,.21-2.88,.21-6.65,0-9.53,1.08-1.63,2.17-3.24,3.17-4.96-.23-.24-.61-.32-.76-.64-.46-2.38,2.63-2.15,4.43-2.67-2.91-1.43-5.75-5.77-3.8-10.04,.52,4.06,2.74,7.14,6.84,7.37,4.51,.25,7.44-2.99,7.85-7.5,1.84,4.24-.69,8.75-3.8,10.04,1.81,.43,6.26,1.26,3.67,3.43,.96,1.66,2.03,3.22,3.04,4.83-.02,3.54,.07,7.19-.13,10.55,.36-2.1,.68-4.23,1.27-6.1,.52,2.11-1.72,6.46,.88,7.25,.97-1.02,1.49-2.49,2.03-3.94-.7,.32-1.31,1.82-2.66,1.91,1.25-1.08,1.99-2.66,2.91-4.07-.53,.24-2.05,.57-2.53,1.27,.06-1.34,1.94-1.5,2.66-2.67,.53-.86,.45-1.97,1.01-2.92-.96-.11-1.28,1.51-1.27,2.8-.46,.04-.61,.19-1.01,0-.28-.99-.05-2.49-.13-3.68,.63,.1,.62-.45,1.14-.13-.31-.46,.03-1.12-.63-1.4,.35-.03,1.21-.22,1.52,.25-.19-.53,.02-1.46-.51-1.65,.24-.07,1.53-.09,1.77,.25-.08-1.01-.37-2.82-2.03-2.16-.37,.14-.41,.6-.38,1.14h-1.01c-.74,.1-.33,.78-.51,1.4-.17,.6-.71,.89-.76,1.27-.15,1.22,.54,2.71-.13,4.07-.04-1.77-1.21-4.46,.25-5.47-.26-.88,.44-1.83,1.52-1.78,.37-.61,.42-.99,.51-2.03,.47-5.66,3.5-12.4,8.61-12.96,2.72-.3,4.13,1.41,5.45,3.18-.88-.47-2.36-1.45-4.43-1.14,1.51,.43,2.65,1.23,3.29,2.54-.67-.19-2.16-1.14-3.55-.64,1.24,.45,2.11,1.27,2.79,2.29-.67-.26-1.96-.99-3.55-.76,1.31,.64,2.61,1.28,2.91,2.92-1.12-.74-2.42-1.3-4.3-1.27,1.31,.55,2.44,1.28,2.91,2.67-.95-.78-2.17-1.3-4.05-1.14,1.54,.41,2.88,1.01,2.66,3.18-.5-1.03-2.28-1.43-3.8-1.02,1.57,.08,2.25,2.88,1.14,4.07,.07-2.35-3.54-3.07-4.18-.89,.8,.61,1.38,1.32,1.01,2.79-.02,.45,.43,.42,.51,.76-.35,2.13-1.96,3.53-2.15,6.23-.07,.92-.02,1.67-.13,2.67-.02,.28,.45,.06,.63,.12-.63,.89-1.37,1.68-1.9,2.67-.02,.28,.45,.06,.63,.13-.25,.89-.75,2.07-.38,3.18,1.63-2.34,2.19-5.77,5.95-5.97-2.86,.9-3.81,3.71-5.06,6.23,.27,1.05,1.52,1.78,1.77,2.42-1.14-.21-1.94-.77-2.41-1.65-.35,.24-.64,.54-.89,.89,.35,.92,.76,1.78,1.65,2.16-.9,.19-2.03-.51-2.28-1.4-.44,.37-.75,.85-1.14,1.27,.49,.73,.81,1.64,1.77,1.91-.86,.15-1.92-.62-2.53-1.14-.82,1.1-2.02,1.5-2.79,2.67-.68,1.03-.62,2.59-1.64,3.31,0,.39,.27,.49,.38,.76,.89-.46,1.4-1.31,1.77-2.29,.64,1.59-2.08,2.87-.13,3.94-.18-1.32,1.16-2.12,1.27-3.56,.44,1.04-.19,2.1-.51,2.8,.12,.78,1.42,.52,1.9,.25-.07,.66-1.17,.53-.51,1.27-.23,.35-.62-.22-.76-.38-.31,2.1,.18,5.01-.38,6.87,.41,.22,.99,.27,1.27,.63,4.18,.77,1.99-4.87,3.67-6.61-.26,1.44-.3,4.19-.25,6.35-.89,.87-3.56,1.34-4.56,.25-.65-.06-1.09,.1-1.27,.51,1.49-.56,2.06,.78,3.67,.51-1.45,.86-4-1.19-4.43,1.02,.75-.97,2.27-.85,3.8-.25-1.1,.56-3.33-.76-3.42,.89-.07,1.19,1.68,1.08,3.04,.76,.54,.09,.52,.75,1.01,.89,.39-.33,.38-1.06,.89-1.27,.65,.32,.7,1.25,1.39,1.53-.02-.61,.12-1.07,.38-1.4,.58,.1,.67,.69,1.14,.89,.26-.2,.04-.89,.25-1.15,.34-.26,.93-.25,1.27-.51-.78-3.11,.26-5.92,3.92-5.34,.32-.19,.44-.57,.63-.89-.72,5.83,4.81,7.52,7.34,10.93-.26-.12-.5-.26-.76-.38,.08,1.3-.12,2.34-.25,3.43,.36-.36,.46-.97,.63-1.53,.29,.43,.04,1.4,.12,2.03,.39-.37,.39-1.13,.63-1.65,.35,.82,.03,2.06-.12,2.8-.35,.29-.81,.46-1.27,.63-.64-.1,.4-.35,.25-.76-.13-.25-.51,.32-1.01,.13,.01-.24,.42-.09,.38-.38-.14-.07-.86,.02-1.14-.25-.02-.28,.45-.06,.63-.13-.31-.24-.99-.11-1.27-.38,.54-.18,1.24-.19,1.52-.64,.03-1.15,.47-2.43,.13-3.56-2.44-2.21-5.5-3.8-6.71-7.24v-1.27c-3.13-.85-3.3,2.28-2.91,5.08-1.01,.21-1.77,.68-1.52,2.16,4.46-.46,9.34,.54,9.37,5.34-.3,.16-.77,.16-1.01,.38-.02,.28,.45,.06,.63,.13-.22,.33-.87,.24-.76,.89,.47,.35,.64-.48,1.39-.25-.61,.13-1.37,1.33-.51,1.78,.55-.38,.44-1.42,1.65-1.14-.43,.33-1.02,.5-.88,1.4,1.4,.45,3.55-.49,4.68-1.14v-1.4c.29-.22,.71-.3,1.27-.25-.05-.7-1.05-.46-.88-1.4,.26-.25,.84-.1,1.14,0,.28-.54-1.07-.53-.88-1.4,.27-.23,.93-.09,1.39-.13-.18-.37-.7-.4-1.01-.64-.06-.69,.22-1.04,.12-1.78,.47,.2,.5,.85,.51,1.52,.6,.41,1.23,.8,1.39,1.65-.36-.19-.79-.31-1.39-.25,.04,.38,.84,1.1,.89,1.91-.44-.07-.68-.34-1.14-.38,.09,.25,.88,.9,1.14,1.4-.43,.41-1.11-.21-1.52,.13-.33,.27-.25,.94-.25,1.53-1.04,.81-2.88,.83-4.05,1.52,.63,.47,2.27,.31,2.78-.13,.05,.81-.45,1.07-1.01,1.27-.97,1.14-2.1,2.13-2.66,3.69-6.9,2.56-1.34-10.23-7.6-7.5-.25,.72,.71,1.5,.63,2.29-.12,1.32-3.18,2.95-5.57,3.81-10.01,3.6-28.94,2.98-34.69-3.56,.12-.9,.5-1.53,.63-2.42-.56-.31-1.1-.58-1.77-.51-2.92,.3-.86,4.7-2.15,6.99-.66,1.18-1.74,1.11-3.67,.89-.64-2.24-2.79-2.96-3.67-4.96,.58,.5,1.88,.43,2.79,.25-1-.9-3.05-.75-4.05-1.65,.1-.65-.18-.92-.12-1.53-.6-.21-.9,.06-1.65,0,.17-.72,.8-.97,1.14-1.53-.35,.11-.77,.16-1.01,.38-.3-.72,.54-1.4,.88-1.91-.52,.03-1.22-.12-1.39,.25-.2-.62,.59-1.35,1.26-1.52-.08-.72,.12-1.15,.26-1.65,.46,.17,.16,1.11,.38,1.52-.04,.55-.7,.48-1.01,.76,.21,.38,1.36-.17,1.39,.38,.03,.75-.87,.57-1.01,1.14,.2,.33,.96-.28,1.27,.13,.07,.88-.83,.78-1.01,1.4,.59-.04,1.1,0,1.39,.25-.34,2.72,2.98,2.43,4.69,2.67,.06-.83-.25-1.27-.89-1.4,.83-.49,1.28,.5,1.52,1.02,.98-.17,.42-1.86-.51-1.65,.48-.43,1,.17,1.39,.25,.29-.39-.15-.88-.63-.89-.02-.28,.45-.06,.63-.13-.13-.33-.52-.42-1.01-.38,0-4.71,4.51-6.08,9.12-5.34,.74-1.07-.21-2.23-1.27-2.29,.13-2.36,.58-5.83-2.91-5.21-.26,4.95-4.35,6.06-6.84,8.77-.02,1.34,.03,2.59,.38,3.56,.27,.33,.75,.44,1.39,.38-.19,.36-.74,.35-1.27,.38-.02,.28,.45,.06,.63,.13-.13,.33-.82,.51-1.14,.25-.02,.28,.1,.4,.38,.38-.24,.35-.81-.02-1.02-.13-.19,.54,.7,.65,.38,.89-1.67-.06-1.76-1.71-1.64-3.56,.3,.5,.38,1.23,.63,1.78,.29-.43,.04-1.39,.12-2.03,.29,.48,.42,1.11,.63,1.65,.11-.83-.19-2.35-.25-3.43-.24,.02-.42,.08-.51,.25,1.97-3.37,8.13-4.95,7.09-10.93,.4,.15,.31,.79,.76,.89,3.72-.56,4.62,2.2,3.92,5.34,.24,.26,.77,.24,1.14,.38,.16,.34,.31,.71,.25,1.27,.65-.07,.55-.89,1.27-.89,.2,.35,.33,.77,.38,1.27,.5,.12,.8-1.06,1.27-1.4,.55,.21,.77,.76,.88,1.4,.44-.2,.6-.67,.89-1.02,1.28,.07,2.95,.7,3.29-.64-.11-.69-.73-.88-1.27-1.14-.78,.15-1.24,.57-2.15,.25,1.33-.64,2.94-1.1,3.8,.25-.35-2.26-2.77-.53-4.43-1.02,1.35,.03,2.2-1.08,3.54-.63-.28-1.21-1.42-.03-2.15,.13-1.34,.3-2.32-.37-3.42-.63-.32-2.05,.11-4.85-.51-6.61,.98,1.3,1.06,3.52,1.14,5.72,.69,1.21,2.75,.92,3.93,.38-.47-1.95-.24-4.59-.38-6.86-.2-.31-.29,.54-.76,.38,.49-.78-.41-.83-.51-1.4,.48,.33,1.76,.45,1.9-.25-.37-.77-.81-1.48-.63-2.8,.17,1.37,1.66,2.05,1.27,3.56,2.02-1.05-.46-2.15-.13-4.07,.44,.95,.94,1.86,1.77,2.42,.3-.04,.28-.39,.51-.51-1.16-2.35-2.28-4.75-4.43-6.1-.83,.39-1.45,1-2.53,1.14,.81-.46,1.26-1.27,1.77-2.03-.28-.49-.83-.69-1.01-1.27-.57,.74-1.2,1.42-2.41,1.52,.77-.49,1.2-1.33,1.64-2.16-.9-2.18-1.64,.79-3.42,.64,.61-.79,1.44-1.35,1.9-2.29-1.25-2.51-2.05-5.48-5.06-6.23,3.49-.12,4.43,3.43,5.82,5.84,.59-.88-.06-2.29-.25-3.18h.63c-.44-1.08-1.2-1.85-1.9-2.67-.02-.28,.45-.06,.63-.13,.12-3.81-1.05-6.31-2.4-8.64,1.12-.9-.15-3.45,1.64-3.68-.48-2.6-4.36-1.68-4.3,.76-.86-1.39-.58-3.98,1.26-4.07-1.4-.88-3.46,.3-3.92,.76,.1-1.81,.99-2.82,2.79-2.92-1.52-.38-3.24,.14-3.92,1.02,.1-1.17,1.36-2.28,2.78-2.54-1.59-.32-3.26,.37-4.18,1.14-.06-1.42,1.38-2.43,2.79-2.8-1.23-.35-2.85,.01-3.42,.76,.18-.93,1.3-1.99,2.53-2.29-.99-.61-2.71,.02-3.29,.63,.18-1.22,1.52-2.37,3.17-2.54-1.74-.43-3.53,.19-4.3,1.14,.77-1.7,2.47-3.57,5.19-3.3,5.28,.52,8.18,7.37,8.74,13.09,.08,.84,.06,1.32,.51,1.91,.72-.05,.98,.38,1.39,.63-.24,.99,.74,1.52,.88,2.29,.25,1.3-.72,2.58-.38,4.32-.89-1.2-.13-2.91-.38-4.32-.15-.82-.96-1.34-.76-2.16-.3-.25-.81-.29-1.39-.25,.12-.58-.21-.72-.25-1.14-1.55-.62-2.14,.7-2.15,2.03,.14-.03,1.25-.18,1.77-.25-.38,.3-.36,1-.51,1.53,.31-.02,.95-.02,1.52-.13-.38,.3-.49,.86-.63,1.4,.26-.05,.59,.25,1.14,.25-.19,.85,.23,2.67-.12,3.68-.4,.19-.56,.04-1.01,0-.13-1.31-.15-2.73-1.39-2.92,.5,2.67,2.28,4.06,3.93,5.59-.56-.29-1.95-.84-2.79-1.27Zm-3.29-20.72c-1.55-1.95-4.89-4.23-7.85-2.16,6.64-2.04,9.53,5.24,10.51,10.42,.13,.67,.05,1.88,.63,2.16,0-3.7-1.28-7.9-3.29-10.42Zm39.38-2.67c-4.24,1.57-6.89,8.21-6.58,13.09,1.29-6.44,3.16-14.12,11.01-12.71-1.24-.84-3.02-.9-4.43-.38Zm-28.74,2.16c.03,5.63,4.12,8.09,9.24,7.5,2.89-.52,5.68-3.45,5.32-7.63-1.33,7.61-13.1,7.24-14.56,.13Zm-12.66,1.4c.23-.52-.25-.99-.76-1.14-.03,.66,0,1.27,.76,1.14Zm39.88-.13c.15,.11,.34,.17,.63,.13,.11-.31,.3-.55,.26-1.02-.34-.25-.82,.44-.89,.89Zm-38.62,.51c.08-.72-.28-1-.76-1.14-.03,.66,0,1.27,.76,1.14Zm37.98-1.14c-.17,.38-.62,.48-.63,1.02,.61,.64,1.32-.78,.63-1.02Zm-37.98,3.05c.4-.59-.22-1.09-.63-1.27,0,.64-.07,1.35,.63,1.27Zm37.22-.25c.25,0,.16,.35,.51,.25,.32-.11,.55-.96,.25-1.27-.3,.29-.72,.46-.76,1.02Zm-36.21,1.52c.4,.11,.39-.2,.63-.25-.1-.54-.49-.78-.89-1.02-.05,.57,.09,.93,.26,1.27Zm34.82-.13c.31-.05,.28,.23,.63,.13,0-.39,.51-.92,.13-1.27-.32,.32-.79,.48-.76,1.15Zm-34.44,1.78c.4-.6-.3-1.01-.63-1.27,0,.64-.07,1.35,.63,1.27Zm34.44-.25c.24,.05,.23,.36,.63,.25,.11-.28,.47-.96,.13-1.27-.25,.35-.7,.48-.76,1.02Zm-33.43,1.91c.4-.6-.3-1.01-.63-1.27,0,.64-.08,1.35,.63,1.27Zm32.41-.25c.14,.03,.2,.14,.25,.25,.67,.16,.79-.9,.51-1.27-.29,.3-.64,.55-.76,1.02Zm-18.87,1.53c.22,.11,.32,.36,.76,.25,.26-.04,.12-.47,.38-.51,.17,.08,.24,.27,.25,.51,.41-.1,.84-.17,1.14-.38v-1.27c-1.38-.07-2.71-.09-2.53,1.4Zm5.7-1.27c-.14,.19,.44,.74,.25,1.4,.31,.16,.62,.31,1.01,.38,.13-.17,.12-.47,.38-.51-.05,.3,.23,.28,.12,.63,.39,.01,.61-.16,.89-.25,.4-1.76-1.41-1.96-2.66-1.65Zm-10.13,2.03c.6-.35,.58,.13,1.27-.13-.13-.51-.13-.88,0-1.4-1.22-.29-1.79,.84-1.27,1.53Zm4.69,6.61c.97,.13,1.43,.76,2.15,1.14-.32-2.81-2.15-4.11-2.91-6.48-.6,2.2,.7,3.4,.76,5.34Zm5.06,0c.05-1.97,1.34-3.14,.76-5.34-1.09,2.38-2.58,4.36-3.29,7.12v8.77c.88-.92,3.15-.75,4.94-.38,.62-.35,.6-1.35,1.52-1.4,.6-2.26-.24-4.93,0-7.63-1.84,.19-4.12-1.44-5.83,0,.42-.6,1.09-.94,1.9-1.14Zm-8.99,1.14c.17,2.65-.51,5.05-.13,7.5,.58,.31,1.18,.6,1.27,1.4,1.37,.57,2.7-.8,3.93,0-.32-3.41,.85-6.49,0-9.28-1.8-.89-3.35,.82-5.06,.38Zm-1.9,10.93h6.58c.35,.68,1.05,1.06,1.9,1.02,.79-.04,1.07-.79,1.9-1.02,1.95-.52,4.24,.39,6.45,0v-8.13c0-.69,.44-2.2-.63-2.16-.38,2.49,.12,6.94-.25,9.66-5.59-.08-9.73-.08-15.32,0,0-2.33-.01-5.32,0-7.63,0-.77,.27-2.03-.26-2.03h-.25c-.3,3.18-.04,6.91-.13,10.29Zm1.77-1.52c.51-.08,1.35,.17,1.65-.13-1.05,0-1.29-.83-1.77-1.4,.05,.5-.12,1.22,.12,1.52Zm11.52,0h1.52c.12-.36,.46-1.14,.13-1.52-.27,.79-.85,1.27-1.65,1.52Zm-18.23,3.18c.52,.46,.95,1.25,1.52,1.91,.44,.51,1.37,1.6,1.65,1.4-.08-2.46,.17-5.93-.13-7.75,.06,2.56-2.3,2.69-3.04,4.45Zm23.42,3.43c1.02-.67,2.12-2.36,3.16-3.43-.83-1.46-2.59-1.98-3.16-3.69v7.12Zm-18.99-4.19c.03,2,3.13,.92,4.3,1.78,.22,.68-.54,1.03-.13,1.91-.77,1.49-2.46,1.07-4.05,1.02,.09,.8,.8,.91,.76,1.53,1.56,1.25,4.96,.38,4.31-2.03,.44-.36,.83-.77,.89-1.52,.58-.4,1.2,.79,1.77,.38-.62-.54-.31-1.77-.12-2.54-.5-1.16-2.74-1.1-3.55-.25-.02-.25,.86-.59,.25-.64-1.21-.12-1.57,.63-2.41,.89,2.41-.32,4.58-.03,5.19,1.78-1.46-1.71-5.16-1.18-7.22-2.29Zm15.7,.38c-1.03-.07-1.21-.98-2.53-.76-.41,.11,.62,.45,.13,.64-.61-1.02-3.08-.81-3.29,.38,.31,.75,.36,1.95-.13,2.54,.76,0,.93-.59,1.65-.63,.03,.1,.11,.15,.25,.13-.26,1.07,.57,1.04,.76,1.65-.04,.3-.2,.48-.13,.89,.65,1.67,3.35,2.16,4.56,.89,.09-.09-.05-.31,0-.38,.22-.33,.79-.73,.51-1.14-1.75,.43-3.24,.44-3.93-1.02,.47-.83-.47-1.17-.12-1.91,1.32-.54,4.52,.13,4.18-1.65-1.98,1.02-5.85,.82-7.09,2.16,.64-1.81,3.06-1.78,5.19-1.78Zm-4.56,13.22c.48-.47,1.27-.66,1.39-1.27,.19-.96-.51-1.98-1.9-1.53-.45-1.52-3.24-1.14-3.8,0-1.1-.48-2.02,.75-1.64,1.78,1.79,1.29,2.98,3.19,4.3,4.95,2.45-.21,3.67,.81,5.06,1.65,.7-.31,1.18-1.32,.63-2.16,1.28-1.26-.61-2.11-.51-3.68-2.58-1.28-4.19,2.17-5.32,3.18,.37-.78,.8-1.97,1.77-2.92Zm-3.67,1.78c-.71-.83-3.4-3.69-4.3-1.78,1.65-.57,2.99,1.63,4.3,1.78Zm-4.43-1.02c.02-.36,.02-.69-.38-.63-.25,.24-.13,.78,.38,.63Zm-1.77-.38c-.06,.4,.27,.41,.63,.38,.14-.51-.39-.63-.63-.38Zm2.28,0c-.06,.4,.27,.41,.63,.38,.14-.51-.39-.63-.63-.38Zm-3.55,.13c-.06,.4,.27,.4,.63,.38v-.51c-.29-.04-.49,.02-.63,.13Zm3.93,1.65c.16-.17,.16-.47,0-.64-.59-.12-.72,.79,0,.64Zm-2.79-1.15c.48,.23,2.04,.2,2.79,.38,2.07,.51,3.41,1.94,5.06,2.8-.68-2.26-4.23-3.44-7.85-3.18Zm.51,.89c.55-1.12-1.24-.22,0,0h0Zm-1.01,.13c.11-.15,.17-.34,.12-.64h-.51c-.03,.36-.02,.69,.38,.64Zm2.28-.13v-.51h-.51c-.1,.44,.07,.61,.51,.51Zm1.39,.25c.2,.52,1.06,.37,1.39,.76-.48,.23-1.38,.06-1.64,.51,.64,0,1.29-.03,1.64,.25-1.06,.12-1.61,.75-2.4,1.14-.1-1.05-.22-1.45-.38-2.54-.41,.07-.59-.09-.89-.12,.72,1.2-.33,2.92,1.27,3.43,1.05-1.02,2.59-1.55,4.43-1.78-1.02-.63-2.01-1.82-3.42-1.65Zm3.42,1.9c-2.09,.53-4.25,.99-4.43,3.43,.2,.44,.69,.58,1.14,.76-.05,.65,.19,.99,.38,1.4,.42,.18,1.22,.18,1.64,0,.1,.7,1.25,.75,1.9,.51,.35-1.17,.26-2.79,.51-4.07,.23,1.3,.17,2.88,.51,4.07,.75,.32,1.75,.06,2.02-.51,.33,.24,1.16,.13,1.52,0,.22-.42,.4-.87,.38-1.52,3.26-1.19-1.5-4.3-3.67-4.07-.19,.32-.48,.54-.88,.64-.43-.12-.55-.55-1.01-.64Zm-6.33,7.88c-.45-1.15-2.43-.16-3.54-.76-.42,.59-.85,1.18-1.65,1.4-.19-.45-.06-1.21-.51-1.4-.32,.83-1.12,1.16-1.77,1.65,1.31,.65,3.02,1.44,2.79,3.05-.14,.92-1.4,1.23-1.39,2.41,6.95,2.94,20.14,2.94,27.1,0-.07-1.18-1.26-1.48-1.39-2.41-.25-1.74,1.57-2.33,2.79-3.18-1.04-.1-1.16-1.12-2.03-1.4-.16,.39-.08,1.02-.38,1.27-.67-.31-1.18-.76-1.52-1.4-1.25,.43-3.36-.11-3.67,.76-.03-1.14,.49-1.74-.25-2.42-2.33,3.08-4.69,6.13-7.09,9.15-2.46-2.99-4.73-6.18-7.22-9.15-.66,.74,.07,1.53-.25,2.42Zm-9.12,.38c.46,.17,.97,.3,1.52,.38-.08-.47,.21-1.31-.25-1.4-.33,.43-.88,.64-1.27,1.02Zm31.65,.38c.55-.13,1.16-.19,1.52-.51-.66-.14-.86-.75-1.52-.89v1.4Zm-38.24,4.58c.55-.57,2.47-.52,3.04,0-1.38-.28-2.86-.03-3.04,1.27,.44-.62,2.63-1.13,3.8-.38,.08-1.23,.18-2.45,.13-3.81,2.48-1.8,3.73,2.66,6.46,1.4-1.23-4.2-11.13-3.86-12.15-.13,.3-.59,1.34-1.11,2.15-.76-.78,.06-1.15,.54-1.52,1.02,.56-.24,1.65-.63,2.41-.26-.9,.08-1.64,.3-2.03,.89,.77-.22,2-.67,2.79-.13-.88,.01-2.09,.36-2.03,.89Zm48.24-1.78c-1.64-3.6-11.15-4-12.28,.38,2.84,.92,4.11-3.44,6.46-1.4,.05,1.26-.16,2.78,.25,3.68,1.07-.7,3.27-.45,3.67,.64,.05-1.75-1.88-1.6-3.17-1.65,.92-.41,2.75-.22,3.29,0-.53-.53-1.49-.62-2.28-.89,1.07-.36,2.36,.17,2.91,.25-.41-.6-1.31-.72-2.03-1.02,1.03-.18,2.06,.3,2.4,.38-.31-.58-.98-.8-1.52-1.15,1.16-.23,1.83,.7,2.28,.76Zm-44.44,5.72c3.75,3.88,11.68,5.21,19.37,5.21s15.76-1.3,19.37-5.34c-.66-1.24-.71-3.09-.88-4.83-7.5,6.5-29.4,6.79-37.1-.13,.08,2.03-.25,3.64-.76,5.08Zm-5.95,.76c-.21,0-.07-.35-.25-.38-.39,1.25-2.06,.7-3.17,1.02,.67,1.15,1.86,1.78,2.28,3.18,3.29,.62,2.86-3.71,1.39-4.83,0,.43,.04,.89-.25,1.02Zm51.66,3.81c.57-1.29,1.68-2.04,2.4-3.18-.65-.31-1.51,.04-2.15-.13-.61-.16-.93-.94-1.39-.51-.19-.24,0-.84-.26-1.02-1.28,1.31-1.87,5.23,1.39,4.83Z"/><path class="e" d="M62.46,31.99c.82,.02,1.63,1.16,2.03,2.03,.43-.33,.81-.71,1.14-1.14-2.34-.36-2.67-2.74-4.81-3.31,2.48-.28,3.52,1.98,6.21,1.91,.5-.6,.89-1.31,1.27-2.03-1.23,.12-3.04,.91-4.43,0,2.06,.08,3.09-.88,4.81-1.14,.66-1.32,.77-3.62,.51-5.47-.6,.22-1.72,.21-1.77-.51,1.48-.12,2.29-.92,2.91-1.91-.06-.49-.45-.65-1.01-.64,.32-.54,1.36,.06,1.9,.13-.02,1.33-.95,1.75-1.52,2.54,1.67,6.15-1.91,9.92-4.69,12.84-.02,1.47,.12,3.09-.38,4.07,.57,1.3,.95,2.78,1.39,4.2-1.92,.8-3.77,2.16-6.58,1.65,2.26-.66,4.12-1.72,6.08-2.67-.23-.41-.38-.89-.76-1.15-2.03,.26-3.81,1.8-6.08,1.02,2.29-.2,3.37-1.62,5.32-2.16-.54-.7-2.13-1.12-3.42-1.27-.8-.09-1.72-.04-2.41,.25,1.12-1.83,3.5-.74,5.57-.51,.1-.75-.63-.8-1.01-1.14-1.32-1.21-2.15-2.79-4.05-3.43,2.37-.3,3.54,1.7,5.07,2.67,.29-.18,.05-.89,.13-1.27-1.87-.97-2.32-3.35-4.43-4.07,1.9-.73,2.8,1.65,4.05,2.42-.16-.81-.58-1.37-1.01-1.91Z"/><path class="e" d="M10.56,20.68c.14,.57-.85,1.1-.76,2.03-.02,.5,.19-.04,.38,.25-.57,2.82,2.95,1.53,2.91,3.81-.26-.37-.49-.78-.89-1.02-1.65,.21-2.19-.68-2.4-1.91-.26,.03-.26,.34-.38,.51-.75-1.45,.31-3.01,1.14-3.69Z"/><path class="e" d="M19.29,29.32c-1.49-.08-3.49,.37-3.54-1.14-.86,.06-1.41,.92-2.28,.25-.25,.22-.36,.57-.63,.76-.44-.11-.44-.66-.76-.89-.42,.13-.4,.7-1.01,.63-.56-1.94-2.81-2.18-2.4-5.08,.43,1.81,1.48,3,2.78,3.94,.19-.11,.27-.32,.25-.63,.69,.03,.76,.68,1.14,1.02,.29-.13,.26-.58,.25-1.02,.38,.21,.54,.64,1.01,.76,1.28-.29,2.88-1.09,4.18-.25,.57-.53-.14-.96,0-1.78-.25,.3-.4,.7-.76,.89-2.2-.06-4.81,.41-4.56-2.04,.06-.56,.27-.92,.89-1.14,.45,.13-.62,.78-.25,1.65,.09-3.06,4.95,.14,5.06-2.92-.3-.34-.82-.45-1.01-.89,.27-.26,.75,.35,1.39,.13,.17-.16,.2-.62-.12-.64,.18-.29,.69,.15,.89,.25-.93,1.45-.47,3.25-2.28,3.43-1.21,.12-3.48-1.16-3.17,1.27,.78-.33,1.57-1.03,3.04-1.02,1.28,0,2.38,.14,2.53-1.27,.79,1.1-.24,2.32-1.39,2.29,.12,.44,.3,.81,.51,1.15-.13,.68-.41,1.2-.76,1.65-.23-.4-.36-.91-.88-1.02-.32,.01-.49,.18-.51,.51,.3,1.06,2.28,.43,3.29,.76,.26,.26-.05,.25-.12,.51,.87,.23,1.43,.77,1.9,1.4-.52-.37-2.17-.7-2.66-1.53Zm-2.66-3.18c.39,.17,1.06,.22,1.14-.26-.46,0-1-.07-1.14,.26Z"/><path class="e" d="M15.75,23.22c.37-.04,1.66,.06,2.28-.13-.37,.73-1.69,.49-2.28,.13Z"/><path class="e" d="M60.44,23.22c.22,.03-1.95,.87-2.15-.13,.65,.11,1.35,.16,2.15,.13Z"/><path class="e" d="M7.52,38.72c-.2-.25-.96-.38-1.27-.13-.46,.56-.48,1.55-.88,2.16,.3,.24,.82,.28,1.01,.63-2.28,.38-2.31,3.02-3.29,4.7,.43,.04,1.03-.1,1.27,.13,.79-1.83,1.54-3.72,2.53-5.34-.53,2.54-3.58,6.82-2.53,10.42,.12,.42,.42,.87,.76,.89,.85,.06,1.88-3.55,2.28-4.32,.87-1.69,1.56-2.73,2.53-3.94,.09,.43-.56,1.21-.76,1.78,2,.41,4.1,.71,5.19,2.03-1.12-.53-3.45-.95-5.7-.76-.35,.29-.37,.9-.63,1.27,2.23,.09,4.24,.4,5.32,1.65-1.18-.73-3.99-.49-5.82-.13-.35,.46-.5,1.11-.63,1.78,2.19,.32,4.77-.89,6.84,0-2.73,.14-4.73,1.68-7.34,1.53-.27,.24-.65,.36-1.01,.51-1.15-.12-1.25-1.29-1.9-1.91-.6,.07-1.07,.28-1.52,.51,.03,1.45,.55,2.41,1.39,3.05,.37-.48,.48-1.21,.88-1.65,.44,.49,.29,1.57,.63,2.16h1.27c.28-.06,.05-.63,.13-.89,.45-.35,.46,.57,.89,.64,1.56-1.53,4.95-1.22,7.09-2.16-.67,2.04-4.57,1.93-6.08,3.56,.02,.36,.23,.53,.25,.89,1.43-.69,4.61-1.39,5.7-2.42-.63,2.46-3.77,2.41-5.32,3.94v.64c1.47,.72,3.25-.36,4.05-1.14-.36,1.81-2.57,1.89-4.3,2.67-.9,.4-1.26,1.33-2.03,1.65,1.33-1.04,1.92-5.44-.13-6.61-4.01,.8-5.51-1.89-5.19-6.1,.4-5.31,5.06-9.84,4.81-14.49-.06-1.1-.58-2.2-1.52-2.54-.67-.25-1.87,.24-2.41-.76,3.42-4.19,8.74,3.24,5.32,7.24,.02,.31-.15,.22-.12,0,.2-.27,.26-.67,.25-1.14Zm-4.81-6.1c.31,.11,.55,.29,1.01,.25-.01-.39,.15-.61,.25-.89-.63,0-1.16,.11-1.27,.64Zm2.03,.38c1.26,.69,1.91,1.98,1.77,4.07,.59-.06,.82-.15,1.27,.13,.06-1.16-.11-2.09-.38-2.92-.38-.08-1.09,.16-1.27-.13-.14-.69,.39-.71,.51-1.14-.6-.29-.86-.92-1.77-.89-.04,.3-.2,.48-.13,.89Zm-2.15,14.74c-.35,.75-.55,1.65-.63,2.67,.5-.14,.93-.34,1.64-.25,.03-.91,.27-1.59,.38-2.42-.47-.25-.85-.01-1.39,0Z"/><path class="e" d="M67.53,60.08c-.69-2.78-5.07-1.86-5.44-4.96,1.15,1.68,4.16,1.5,5.7,2.8,.18-.21,.11-.65,.38-.76-1.28-2.06-5.15-1.53-6.2-3.81,2.15,.93,5.57,.59,7.09,2.16,.39-.12,.51-.51,.76-.76,.31,.11-.04,.88,.25,1.02h1.27c.36-.53,.51-1.27,.51-2.16,.64,.24,.8,.98,1.01,1.65,1.19-.5,2.43-3.51,.13-3.56-.79,.65-1.61,2.8-2.91,1.4-2.76,.3-4.47-1.53-7.47-1.4,1.89-1.08,4.44,.09,6.84,0-.05-.75-.45-1.15-.51-1.91-1.86-.1-4.5-.96-5.82,.25,.55-1.23,2.77-1.88,5.19-1.65-.12-.55-.44-.92-.63-1.4-2.16,0-4.42-.11-5.57,.89,.57-1.29,2.91-1.91,5.06-2.04-.26-.63-.5-1.28-.89-1.78,1.32,1.23,2.72,3.49,3.67,5.97,.39,1.02,1.4,3.61,2.03,1.27,.16-.59,.03-2.06,0-2.42-.26-2.86-1.75-5.99-2.66-7.88,1.04,1.03,1.89,3.36,2.53,5.21,.33-.13,.78-.15,1.27-.13-.88-1.71-.82-4.35-3.16-4.57,.07-.48,.54-.56,1.01-.64-.24-.78-.63-1.4-.76-2.29-.43-.22-.93-.09-1.39,0-.18,.38,.17,1.14,.25,1.65-2.39-3.06-.78-8.76,2.79-8.9,1.12-.04,2.07,.39,2.4,1.4-1.91,.95-4.16,.37-3.92,3.69,.36,5.06,5.48,9.39,4.81,16.14-.24,2.48-1.63,4.72-5.19,3.94-1.8,1.04-1.89,5.47,0,6.48-.69,.05-1.47-.9-1.9-1.53-2.21-.19-3.65-1.17-4.68-2.54,.83,.36,2.42,1.71,4.18,1.14Zm5.07-27.2c.37-.09,.89-.03,1.01-.38-.21-.26-.85-.75-1.27-.38,.21,.13,.14,.54,.25,.76Zm-3.67,1.4c-.24,.73-.6,2.02-.25,2.92,.33-.37,.61-.12,1.14-.13-.4-1.97,.75-3.37,1.77-4.32,.1-.36-.18-.33-.12-.64-.89,0-1.22,.56-1.77,.89,.04,.55,.7,.48,.51,1.27h-1.27Zm3.8,15.89c.72-.09,1.15,.11,1.65,.25-.12-.98-.3-1.9-.63-2.67-1.98-.72-1.14,1.22-1.01,2.42Z"/><path class="e" d="M15.24,43.3c-.62,.07,.13-.37,.12,0,1.95-.01,3.03,.86,4.3,1.52,.67-.22,.85-.92,1.27-1.4-.4-.49-1.17-.61-2.03-.64-.48-1.38-1.28-2.44-2.53-3.05,1.33-.07,2.67,.96,3.29,2.03,2.9,.57,4.6,2.33,5.95,4.45-.89-.51-1.99-1.9-3.29-2.42-1.7,2.02-4.24,3.2-6.33,4.83,3.25-.05,5.65,.77,7.22,2.41-1.59-.04-1.7,3.41-3.8,3.69,1.11-.92,.74-3.32,1.65-4.45-.14-.32-.56-.37-1.01-.38-.6,1.22-.58,3.06-1.65,3.81-.07-.79,.31-2.23,.25-3.43-.67,1.44-2.09,2.14-2.79,3.56-.87-1.15-1.93-2.27-1.77-3.81,.24-2.39,3.33-3.16,4.68-4.45-1.12-.83-2.06-1.83-3.54-2.29Z"/><path class="e" d="M57.4,45.46c1.38,1.39,4.63,2.25,4.81,4.7,.11,1.53-1.01,2.37-1.65,3.68-.8-1.28-2.15-1.99-2.79-3.43-.32,1,.06,2.39,.25,3.31-1.14-.67-1.34-2.3-1.65-3.81-.52-.1-.65,.2-1.14,.13,.66,1.42,.66,3.5,1.52,4.7-1.77-.56-2.09-2.57-3.17-3.81-.21,0-.33,.09-.38,.25,.96-1.75,3.93-2.58,7.09-2.54-2.02-1.65-4.71-2.65-6.2-4.83-1.4,.54-2.4,1.49-3.29,2.54,.82-2.01,2.8-3.96,5.57-4.45,.88-1.06,1.86-2.03,3.55-2.29-1.06,.84-2.18,1.63-2.53,3.18-.87-.03-1.46,.23-2.03,.51,.26,.63,.62,1.16,1.14,1.52,1.23-.67,3.37-1.78,4.68-1.52-1.66,.32-2.39,1.58-3.8,2.16Z"/><path class="e" d="M27.27,46.98c-.03,.38,.14,1.28,.13,2.03-.38,.51-1.42,.36-2.03,.64,.8-.56-.51-1.55,.25-2.41,.19,.58,.18,1.34,.76,1.53,.63-.25,.41-1.37,.89-1.78Z"/><path class="e" d="M38.79,50.04c-.41,.31-.36,1.08-.63,1.53-.23-.45-.34-1.01-.51-1.53-.29,.18-.05,.88-.13,1.27-.34-.33-.43-.93-.89-1.14,.05,.58,.3,.97,.38,1.52-.64-.59-1.09-1.36-1.9-1.78,.17-.63,.43-1.18,1.39-1.02,.63-.34,1.13-.81,2.28-.63,.48,.32,.81,.8,1.78,.63,.1,.37,.6,.33,.51,.89-.41,.77-1.31,1.05-1.65,1.91-.21-.26,.17-1.01,.25-1.4-.33-.16-.66,.77-.89,1.14-.12-.09,.08-.93,0-1.4Z"/><path class="e" d="M35.5,57.15c.15,.28-.44,.9-.38,1.53,.29-.39,.72-.64,1.01-1.02,.28,.29-.28,.82-.12,1.4,.38-.3,.6-.75,.89-1.15,.21,.17-.13,.88,0,1.4,.29-.34,.43-.83,.76-1.14,.15,.49-.21,1.57-.25,2.29-1.4,.04-1.5-.58-2.79-.51-.42-.51-.41-1.45-1.26-1.53-.14-1.24,.82-1.38,1.39-1.91,.27,.4-.38,.97-.38,1.52,.27,.1,.79-.64,1.14-.89Z"/><path class="e" d="M40.69,57.28c.32-.11,.86,.66,1.27,.89-.05-.67-.45-.99-.51-1.65,.7,.44,1.59,.69,1.52,1.91-.27,.07-.36,.32-.76,.25-.1,.49-.22,.97-.51,1.27-1.29-.07-1.38,.55-2.79,.51-.17-.72-.23-1.55-.38-2.29,.41,.23,.64,.63,.76,1.14,.34-.31,0-1.01,0-1.4,.44,.28,.54,.9,1.01,1.15,.04-.59-.25-.85-.25-1.4,.46,.26,.68,.75,1.14,1.02-.16-.47-.16-1.11-.51-1.4Z"/></g><path class="d" d="M105.55,64.47c0,1.63-1.31,2.94-2.93,2.94s-2.93-1.32-2.93-2.94V18.04h-8.76v46.41c0,6.48,5.24,11.74,11.7,11.74,2.46,0,4.73-.76,6.62-2.06V18.04h-3.69v46.43Zm-19.61,10.45h1.72V18h-1.72v56.92Zm28.38-46.43c0-4.56,2.6-8.51,6.38-10.45h-9.74v54.64c2.06-2.11,3.34-4.99,3.35-8.17v10.57h9.25l-9.15-9.25c-.05-.46-.09-.94-.09-1.42l-.03-11.36h8.79v11.42s.12,2.93,2.92,2.93,2.88-2.93,2.88-2.93v-16.21h-14.56V28.49Zm23.36,0l-.03,8.36h-8.73v-8.77s-.42-2.79-2.99-2.79-2.84,2.88-2.84,2.88v13.53h14.6v22.7c0,4.74-2.8,8.81-6.83,10.67h10.12V18.04h-9.68c3.79,1.94,6.38,5.89,6.38,10.45Zm16.29,15.67l-5.11-26.12h-6.16v57.03h3.71V38.24l7.53,36.83,7.62-36.83v36.83h8.79V18.04h-11.24l-5.14,26.12Zm19.64-26.16v56.92h1.72V18h-1.72Zm-64.37,57.05h1.72v-2.32l-1.72,1.38v.94Z"/></g><path class="d" d="M37.28,9.79l-1.68,1.5,.09-2.25-2.16,.62,1.05-1.99-2.21-.38,1.81-1.33-1.83-1.31,2.21-.41-1.09-1.97,2.17,.59-.12-2.25,1.7,1.48,.86-2.08,.89,2.07,1.68-1.5-.09,2.25,2.16-.62-1.06,1.99,2.22,.38-1.81,1.34,1.83,1.31-2.21,.41,1.09,1.98-2.17-.59,.12,2.25-1.7-1.48-.86,2.08-.89-2.07h0Zm.88,.74l.67-1.62,1.32,1.15-.1-1.75,1.68,.46-.84-1.53,1.71-.32-1.42-1.01,1.4-1.04-1.72-.29,.82-1.54-1.68,.48,.07-1.75-1.3,1.16-.69-1.6-.53,1.28-.14,.33-1.32-1.14,.1,1.75-1.68-.46,.84,1.53-1.71,.32,1.42,1.01-1.4,1.03,1.72,.29-.82,1.54,1.68-.48-.07,1.75,1.3-1.17,.69,1.61h0Zm-.84-8.01l.17-.2-.17,.2h0Z"/></g><g><path class="d" d="M416.64,80l15.35-26.09h-22.45l-5.52,12.98-5.6-12.98h-63.47v12.71c-1.82-10.34-8.52-12.71-18.49-12.71h-38.58l24.46,54.08h0v-14.86h13.61c11.12,0,17.28-5.43,18.99-14.44v29.31h62.98l5.6-14.44,5.88,14.44h22.74l-15.49-28Zm-107.86,.25h-6.44v-12.13h7.58c3.87,0,5.81,1.73,5.81,5.96,0,4.44-2.22,6.18-6.96,6.18Zm45.89-11.25h22.1v-13.37l11.18,19.1h-33.28v-5.73Zm0,24.04v-5.7h32.32l-10.23,18.57v-12.87h-22.1Z"/><path class="d" d="M434.89,48.08v-6.56h-2.5v-1.14h6.3v1.14h-2.51v6.56h-1.29Zm4.66,0v-7.7h1.89l1.95,6.15,1.88-6.15h1.85v7.7h-1.17v-6.46l-1.98,6.46h-1.16l-2.07-6.56v6.56h-1.18Z"/><polygon class="d" points="253.38 107.99 265.65 80.95 241.19 80.95 253.38 107.99"/><polygon class="d" points="290.11 80.95 290.11 80.95 290.11 80.95 290.11 80.95"/><polygon class="d" points="290.11 80.95 265.65 80.95 277.87 53.92 253.49 0 204.64 107.99 229.01 107.99 253.38 53.84 277.88 107.99 290.11 80.95 290.11 80.95"/></g></g></g></svg>